<svg width="42" height="40" viewBox="0 0 42 40" fill="none" xmlns="http://www.w3.org/2000/svg">
<path d="M27.5668 0H13.7834C13.0001 0 12.2488 0.311179 11.6949 0.865082C11.141 1.41898 10.8298 2.17024 10.8298 2.95357V8.86072C10.8298 9.12183 10.9336 9.37225 11.1182 9.55688C11.3028 9.74152 11.5532 9.84525 11.8144 9.84525H29.5358C29.7969 9.84525 30.0473 9.74152 30.232 9.55688C30.4166 9.37225 30.5203 9.12183 30.5203 8.86072V2.95357C30.5203 2.17024 30.2091 1.41898 29.6552 0.865082C29.1013 0.311179 28.3501 0 27.5668 0Z" fill="#8AB9FF"/>
<path d="M38.3965 7.87598H2.95357C1.32236 7.87598 0 9.19834 0 10.8296V36.4272C0 38.0584 1.32236 39.3808 2.95357 39.3808H38.3965C40.0277 39.3808 41.35 38.0584 41.35 36.4272V10.8296C41.35 9.19834 40.0277 7.87598 38.3965 7.87598Z" fill="#F2F2F2"/>
<path d="M12.7988 23.6284C15.5175 23.6284 17.7215 21.4245 17.7215 18.7058C17.7215 15.9871 15.5175 13.7832 12.7988 13.7832C10.0802 13.7832 7.87622 15.9871 7.87622 18.7058C7.87622 21.4245 10.0802 23.6284 12.7988 23.6284Z" fill="#FF9E9E"/>
<path d="M12.7988 23.6284C11.3039 23.6302 9.87086 24.2249 8.81386 25.2819C7.75685 26.3389 7.16222 27.772 7.1604 29.2668V31.6838C7.1604 31.8974 7.24525 32.1022 7.39628 32.2533C7.54731 32.4043 7.75215 32.4891 7.96574 32.4891H17.6318C17.7376 32.4891 17.8423 32.4683 17.94 32.4278C18.0377 32.3874 18.1265 32.328 18.2013 32.2533C18.276 32.1785 18.3354 32.0897 18.3758 31.992C18.4163 31.8943 18.4371 31.7896 18.4371 31.6838V29.2668C18.4353 27.772 17.8407 26.3389 16.7837 25.2819C15.7267 24.2249 14.2936 23.6302 12.7988 23.6284Z" fill="#FF9E9E"/>
<path d="M34.4583 19.6905H23.6285C23.3674 19.6905 23.117 19.5868 22.9324 19.4021C22.7477 19.2175 22.644 18.9671 22.644 18.706C22.644 18.4449 22.7477 18.1944 22.9324 18.0098C23.117 17.8252 23.3674 17.7215 23.6285 17.7215H34.4583C34.7194 17.7215 34.9698 17.8252 35.1545 18.0098C35.3391 18.1944 35.4428 18.4449 35.4428 18.706C35.4428 18.9671 35.3391 19.2175 35.1545 19.4021C34.9698 19.5868 34.7194 19.6905 34.4583 19.6905ZM34.4583 24.6131H23.6285C23.3674 24.6131 23.117 24.5094 22.9324 24.3248C22.7477 24.1401 22.644 23.8897 22.644 23.6286C22.644 23.3675 22.7477 23.1171 22.9324 22.9324C23.117 22.7478 23.3674 22.6441 23.6285 22.6441H34.4583C34.7194 22.6441 34.9698 22.7478 35.1545 22.9324C35.3391 23.1171 35.4428 23.3675 35.4428 23.6286C35.4428 23.8897 35.3391 24.1401 35.1545 24.3248C34.9698 24.5094 34.7194 24.6131 34.4583 24.6131ZM34.4583 29.5357H23.6285C23.3674 29.5357 23.117 29.432 22.9324 29.2474C22.7477 29.0628 22.644 28.8123 22.644 28.5512C22.644 28.2901 22.7477 28.0397 22.9324 27.8551C23.117 27.6704 23.3674 27.5667 23.6285 27.5667H34.4583C34.7194 27.5667 34.9698 27.6704 35.1545 27.8551C35.3391 28.0397 35.4428 28.2901 35.4428 28.5512C35.4428 28.8123 35.3391 29.0628 35.1545 29.2474C34.9698 29.432 34.7194 29.5357 34.4583 29.5357ZM12.7988 24.6131C11.6304 24.6131 10.4883 24.2667 9.51692 23.6176C8.54549 22.9685 7.78836 22.0459 7.34126 20.9665C6.89416 19.8872 6.77718 18.6994 7.00511 17.5536C7.23304 16.4077 7.79564 15.3551 8.62177 14.529C9.4479 13.7029 10.5004 13.1403 11.6463 12.9123C12.7922 12.6844 13.9799 12.8014 15.0593 13.2485C16.1387 13.6956 17.0613 14.4527 17.7104 15.4241C18.3594 16.3956 18.7059 17.5377 18.7059 18.706C18.7043 20.2722 18.0815 21.7738 16.974 22.8812C15.8665 23.9887 14.3649 24.6116 12.7988 24.6131ZM12.7988 14.7679C12.0199 14.7679 11.2585 14.9988 10.6109 15.4316C9.96324 15.8643 9.45849 16.4793 9.16042 17.1989C8.86236 17.9185 8.78437 18.7103 8.93632 19.4743C9.08827 20.2382 9.46334 20.9399 10.0141 21.4906C10.5648 22.0414 11.2666 22.4165 12.0305 22.5684C12.7944 22.7204 13.5862 22.6424 14.3058 22.3443C15.0254 22.0462 15.6404 21.5415 16.0732 20.8939C16.5059 20.2463 16.7368 19.4849 16.7368 18.706C16.7368 17.6615 16.3219 16.6599 15.5834 15.9213C14.8449 15.1828 13.8432 14.7679 12.7988 14.7679Z" fill="#232323"/>
<path d="M18.7059 33.4738H6.89163C6.63052 33.4738 6.3801 33.3701 6.19547 33.1855C6.01083 33.0008 5.9071 32.7504 5.9071 32.4893V29.5357C5.9071 27.7079 6.63319 25.955 7.92563 24.6626C9.21807 23.3701 10.971 22.644 12.7988 22.644C14.6266 22.644 16.3795 23.3701 17.6719 24.6626C18.9644 25.955 19.6904 27.7079 19.6904 29.5357V32.4893C19.6904 32.7504 19.5867 33.0008 19.4021 33.1855C19.2175 33.3701 18.967 33.4738 18.7059 33.4738ZM7.87615 31.5048H17.7214V29.5357C17.7214 28.2302 17.2028 26.9781 16.2796 26.0549C15.3564 25.1317 14.1043 24.6131 12.7988 24.6131C11.4932 24.6131 10.2411 25.1317 9.31796 26.0549C8.39479 26.9781 7.87615 28.2302 7.87615 29.5357V31.5048Z" fill="#232323"/>
<path d="M38.3965 39.3808H2.95357C2.17024 39.3808 1.41898 39.0696 0.865082 38.5157C0.311179 37.9618 0 37.2105 0 36.4272V10.8296C0 10.0462 0.311179 9.29496 0.865082 8.74106C1.41898 8.18716 2.17024 7.87598 2.95357 7.87598H38.3965C39.1798 7.87598 39.931 8.18716 40.4849 8.74106C41.0388 9.29496 41.35 10.0462 41.35 10.8296V36.4272C41.35 37.2105 41.0388 37.9618 40.4849 38.5157C39.931 39.0696 39.1798 39.3808 38.3965 39.3808ZM2.95357 9.84503C2.69246 9.84503 2.44204 9.94875 2.25741 10.1334C2.07278 10.318 1.96905 10.5684 1.96905 10.8296V36.4272C1.96905 36.6883 2.07278 36.9387 2.25741 37.1234C2.44204 37.308 2.69246 37.4117 2.95357 37.4117H38.3965C38.6576 37.4117 38.908 37.308 39.0926 37.1234C39.2773 36.9387 39.381 36.6883 39.381 36.4272V10.8296C39.381 10.5684 39.2773 10.318 39.0926 10.1334C38.908 9.94875 38.6576 9.84503 38.3965 9.84503H2.95357Z" fill="#232323"/>
<path d="M29.5358 9.84525H11.8144C11.5532 9.84525 11.3028 9.74152 11.1182 9.55688C10.9336 9.37225 10.8298 9.12183 10.8298 8.86072V2.95357C10.8298 2.17024 11.141 1.41898 11.6949 0.865082C12.2488 0.311179 13.0001 0 13.7834 0H27.5668C28.3501 0 29.1013 0.311179 29.6552 0.865082C30.2091 1.41898 30.5203 2.17024 30.5203 2.95357V8.86072C30.5203 9.12183 30.4166 9.37225 30.232 9.55688C30.0473 9.74152 29.7969 9.84525 29.5358 9.84525ZM12.7989 7.8762H28.5513V2.95357C28.5513 2.69246 28.4475 2.44204 28.2629 2.25741C28.0783 2.07278 27.8279 1.96905 27.5668 1.96905H13.7834C13.5223 1.96905 13.2719 2.07278 13.0872 2.25741C12.9026 2.44204 12.7989 2.69246 12.7989 2.95357V7.8762Z" fill="#232323"/>
</svg>
