<svg width="25" height="35" viewBox="0 0 25 35" fill="none" xmlns="http://www.w3.org/2000/svg">
<path d="M4.91019 16.5287H3.43363C2.88538 16.5287 2.35959 16.3222 1.97192 15.9546C1.58425 15.5869 1.36646 15.0883 1.36646 14.5683C1.36646 14.0484 1.58425 13.5498 1.97192 13.1821C2.35959 12.8145 2.88538 12.6079 3.43363 12.6079H4.91019V16.5287ZM20.2664 16.5287H21.7429C22.2912 16.5287 22.817 16.3222 23.2047 15.9546C23.5923 15.5869 23.8101 15.0883 23.8101 14.5683C23.8101 14.0484 23.5923 13.5498 23.2047 13.1821C22.817 12.8145 22.2912 12.6079 21.7429 12.6079H20.2664V16.5287Z" fill="#FFCBBE"/>
<path d="M23.2196 33.8925H1.95715L2.21112 29.0754C2.30204 27.3531 3.0875 25.7299 4.40503 24.5414C5.72256 23.3529 7.47137 22.6901 9.28973 22.6901H15.887C17.7054 22.6901 19.4542 23.3529 20.7717 24.5414C22.0892 25.7299 22.8747 27.3531 22.9656 29.0754L23.2196 33.8925Z" fill="#8AB9FF"/>
<path d="M16.132 22.1299C16.132 23.9862 12.5883 27.7311 12.5883 27.7311C12.5883 27.7311 9.04456 23.9862 9.04456 22.1299C9.04456 21.2386 9.41791 20.3838 10.0825 19.7536C10.7471 19.1233 11.6484 18.7692 12.5883 18.7692C13.5281 18.7692 14.4295 19.1233 15.0941 19.7536C15.7587 20.3838 16.132 21.2386 16.132 22.1299Z" fill="#FFCBBE"/>
<path d="M12.5883 23.2502C10.3953 23.2502 8.29212 22.424 6.74143 20.9534C5.19075 19.4828 4.31958 17.4882 4.31958 15.4085V8.12695L7.86332 5.32635H17.3133L20.857 8.12695V15.4085C20.857 17.4882 19.9858 19.4828 18.4352 20.9534C16.8845 22.424 14.7813 23.2502 12.5883 23.2502Z" fill="#FFDDCE"/>
<path d="M4.31957 16.5287H3.43363C2.88538 16.5287 2.35959 16.3222 1.97192 15.9546C1.58425 15.5869 1.36646 15.0883 1.36646 14.5683C1.36646 14.0484 1.58425 13.5498 1.97192 13.1821C2.35959 12.8145 2.88538 12.6079 3.43363 12.6079H4.31957V16.5287ZM20.857 16.5287H21.7429C22.2912 16.5287 22.817 16.3222 23.2047 15.9546C23.5923 15.5869 23.8101 15.0883 23.8101 14.5683C23.8101 14.0484 23.5923 13.5498 23.2047 13.1821C22.817 12.8145 22.2912 12.6079 21.7429 12.6079H20.857V16.5287Z" fill="#FFCBBE"/>
<path d="M21.4477 12.6079H20.2664L18.8832 9.98487C18.5889 9.42665 18.1366 8.95717 17.5768 8.62902C17.017 8.30088 16.372 8.12703 15.7139 8.12695H9.23656C8.63552 8.12695 8.04436 8.27193 7.51867 8.54824C6.99297 8.82456 6.55002 9.22313 6.23147 9.70649L4.31963 12.6079H3.729V6.92494C3.72902 6.61292 3.82063 6.30707 3.99358 6.04165C4.16654 5.77622 4.414 5.56171 4.70826 5.42214L4.91025 5.32635L4.31963 3.646H6.68212L6.09149 1.40552L14.3602 3.08588V1.40552L20.0639 4.57411C20.5026 4.99023 20.8506 5.48422 21.0881 6.02789C21.3255 6.57156 21.4477 7.15426 21.4477 7.74271V12.6079Z" fill="#3E3D42"/>
<path d="M17.6146 22.3204C19.4978 21.0878 20.8073 19.214 21.2705 17.0889H21.743C22.4476 17.0879 23.123 16.822 23.6212 16.3495C24.1194 15.877 24.3997 15.2365 24.4008 14.5683C24.403 14.2379 24.3351 13.9105 24.2012 13.6055C24.0673 13.3004 23.87 13.0241 23.6212 12.7928C23.1988 12.3849 22.6384 12.1311 22.0383 12.0758V7.74049C22.0396 7.07844 21.9024 6.42272 21.6348 5.81126C21.3672 5.19979 20.9744 4.64472 20.4791 4.17813C20.4436 4.14392 20.404 4.11383 20.361 4.08851L14.6615 0.923834C14.5718 0.873413 14.4696 0.846399 14.3654 0.845536C14.2612 0.844673 14.1585 0.869991 14.0679 0.918918C13.9774 0.967846 13.902 1.03864 13.8496 1.12411C13.7972 1.20958 13.7696 1.30667 13.7696 1.40554V2.39135L6.21556 0.856619C6.11699 0.837364 6.01488 0.842167 5.9188 0.870579C5.82273 0.89899 5.73584 0.950079 5.66628 1.01905C5.59705 1.08684 5.54716 1.17024 5.52133 1.26138C5.49549 1.35252 5.49456 1.44839 5.51862 1.53997L5.92615 3.0859H4.31966C4.2258 3.08552 4.13325 3.10672 4.04993 3.14769C3.96661 3.18866 3.89501 3.24818 3.84125 3.32115C3.78637 3.39296 3.75025 3.47611 3.73588 3.56375C3.7215 3.65139 3.72928 3.74102 3.75857 3.82525L4.19563 5.05752C3.86948 5.26025 3.60194 5.53707 3.4173 5.86282C3.23267 6.18856 3.1368 6.5529 3.13841 6.92272V12.0758C2.54109 12.1303 1.98293 12.3821 1.56145 12.7872C1.31101 13.0188 1.11236 13.2958 0.977397 13.6019C0.842429 13.9079 0.773906 14.2366 0.775922 14.5683C0.777016 15.2365 1.05738 15.877 1.55558 16.3495C2.05378 16.822 2.72917 17.0879 3.43372 17.0889H3.90622C4.36948 19.214 5.67897 21.0878 7.56218 22.3204C5.93854 22.6827 4.48225 23.5338 3.4112 24.7464C2.34015 25.9591 1.71192 27.468 1.62051 29.0474L1.36654 33.8645C1.36378 33.9405 1.37697 34.0163 1.40536 34.0875C1.43375 34.1586 1.47677 34.2237 1.53192 34.279C1.58627 34.3342 1.65213 34.3782 1.72533 34.4081C1.79853 34.438 1.87747 34.4531 1.95717 34.4526H23.2196C23.2993 34.4531 23.3782 34.438 23.4514 34.4081C23.5246 34.3782 23.5905 34.3342 23.6448 34.279C23.7 34.2237 23.743 34.1586 23.7714 34.0875C23.7998 34.0163 23.813 33.9405 23.8102 33.8645L23.5562 29.0474C23.4648 27.468 22.8366 25.9591 21.7656 24.7464C20.6945 23.5338 19.2382 22.6827 17.6146 22.3204ZM21.4477 15.4085V13.168H21.743C22.1342 13.1694 22.509 13.3173 22.7856 13.5797C23.0622 13.842 23.2182 14.1974 23.2196 14.5683C23.2196 14.9397 23.064 15.2959 22.7871 15.5585C22.5102 15.8211 22.1346 15.9686 21.743 15.9686H21.4182C21.43 15.7838 21.4477 15.599 21.4477 15.4085ZM3.43372 15.9686C3.04212 15.9686 2.66655 15.8211 2.38964 15.5585C2.11273 15.2959 1.95717 14.9397 1.95717 14.5683C1.95857 14.1974 2.11458 13.842 2.39119 13.5797C2.66779 13.3173 3.04255 13.1694 3.43372 13.168H3.72904V15.4085C3.72904 15.599 3.74675 15.7838 3.75857 15.9686H3.43372ZM4.31966 12.0478V6.92272C4.3186 6.7148 4.3796 6.51084 4.49561 6.33441C4.61162 6.15798 4.77791 6.01629 4.97525 5.9257L5.17606 5.82488C5.30298 5.76445 5.40269 5.66268 5.45693 5.53821C5.51116 5.41374 5.51629 5.2749 5.47137 5.14714L5.14062 4.20614H6.68215C6.77186 4.20659 6.8605 4.18766 6.94135 4.15078C7.0222 4.1139 7.09312 4.06004 7.14874 3.99329C7.20312 3.92555 7.24088 3.84716 7.25927 3.76383C7.27766 3.68049 7.27622 3.59432 7.25505 3.51159L6.89477 2.13929L14.2362 3.63481C14.3225 3.65238 14.4117 3.65141 14.4975 3.63196C14.5833 3.61252 14.6634 3.5751 14.732 3.52245C14.8005 3.4698 14.8558 3.40326 14.8936 3.32772C14.9315 3.25218 14.9511 3.16954 14.9509 3.0859V2.38014L19.6995 5.01831C20.443 5.74897 20.8581 6.72505 20.8571 7.74049V12.0478H20.6327L19.4101 9.73452C19.0695 9.08121 18.5424 8.53169 17.8888 8.14847C17.2352 7.76525 16.4812 7.56374 15.7128 7.56685H9.23955C8.5376 7.56483 7.84678 7.73308 7.23273 8.05562C6.61868 8.37816 6.10181 8.84427 5.73125 9.40965C5.7152 9.4327 5.70136 9.45707 5.6899 9.48246L4.52047 12.0478H4.31966ZM4.91028 15.4085V13.168C5.02537 13.1677 5.13789 13.1357 5.23429 13.0761C5.33069 13.0165 5.40687 12.9317 5.45365 12.832L6.75302 9.96977C7.01983 9.57449 7.38771 9.24961 7.82245 9.02535C8.25719 8.80109 8.74466 8.68473 9.23955 8.68709H15.7128C16.2612 8.68504 16.7993 8.82879 17.2659 9.10204C17.7326 9.37529 18.1091 9.7671 18.3529 10.233L19.7408 12.86C19.7886 12.9533 19.8634 13.0318 19.9565 13.0864C20.0496 13.1409 20.1571 13.1692 20.2665 13.168V15.4085C20.2665 17.3397 19.4575 19.1918 18.0176 20.5574C16.5777 21.9229 14.6247 22.6901 12.5884 22.6901C10.552 22.6901 8.59906 21.9229 7.15914 20.5574C5.71922 19.1918 4.91028 17.3397 4.91028 15.4085ZM15.0808 23.463C14.3783 24.678 13.5429 25.8195 12.5884 26.8686C11.637 25.8205 10.8036 24.681 10.1019 23.4686C10.9094 23.6937 11.7466 23.8088 12.5884 23.8103C13.4326 23.8101 14.2722 23.6931 15.0808 23.463ZM2.57732 33.3324L2.80176 29.1035C2.88672 27.6215 3.53056 26.2178 4.61585 25.1484C5.70114 24.0791 7.15557 23.4153 8.71389 23.2782C9.52305 25.3114 12.0332 27.9832 12.1513 28.1064C12.2064 28.1646 12.2738 28.2111 12.3491 28.2429C12.4244 28.2747 12.5059 28.2912 12.5884 28.2912C12.6708 28.2912 12.7523 28.2747 12.8276 28.2429C12.9029 28.2111 12.9703 28.1646 13.0254 28.1064C13.1436 27.9832 15.636 25.3338 16.457 23.2782C18.0163 23.4142 19.4721 24.0774 20.5585 25.1469C21.645 26.2163 22.2897 27.6206 22.375 29.1035L22.5994 33.3324H2.57732Z" fill="black"/>
<path d="M9.0446 14.8484C9.20124 14.8484 9.35147 14.7894 9.46224 14.6843C9.573 14.5793 9.63522 14.4368 9.63522 14.2883V13.168C9.63522 13.0195 9.573 12.877 9.46224 12.772C9.35147 12.6669 9.20124 12.6079 9.0446 12.6079C8.88796 12.6079 8.73773 12.6669 8.62697 12.772C8.51621 12.877 8.45398 13.0195 8.45398 13.168V14.2883C8.45398 14.4368 8.51621 14.5793 8.62697 14.6843C8.73773 14.7894 8.88796 14.8484 9.0446 14.8484ZM16.1321 14.8484C16.2887 14.8484 16.4389 14.7894 16.5497 14.6843C16.6605 14.5793 16.7227 14.4368 16.7227 14.2883V13.168C16.7227 13.0195 16.6605 12.877 16.5497 12.772C16.4389 12.6669 16.2887 12.6079 16.1321 12.6079C15.9754 12.6079 15.8252 12.6669 15.7144 12.772C15.6037 12.877 15.5415 13.0195 15.5415 13.168V14.2883C15.5415 14.4368 15.6037 14.5793 15.7144 14.6843C15.8252 14.7894 15.9754 14.8484 16.1321 14.8484ZM16.7227 17.649H15.5415C15.5415 18.5597 14.1889 19.3293 12.5883 19.3293C10.9878 19.3293 9.63522 18.5597 9.63522 17.649H8.45398C8.45398 19.2173 10.2701 20.4496 12.5883 20.4496C14.9065 20.4496 16.7227 19.2173 16.7227 17.649Z" fill="black"/>
</svg>
