<svg width="95" height="103" viewBox="0 0 95 103" fill="none" xmlns="http://www.w3.org/2000/svg">
<path d="M11.4516 65.3807C11.0904 64.6299 10.4838 64.0248 9.73202 63.6655C8.98025 63.3063 8.12838 63.2144 7.31729 63.4051L4.09766 54.8804C5.04279 54.7698 5.90766 54.2953 6.50875 53.5576C7.10984 52.8199 7.39986 51.877 7.31729 50.929V47.563C7.31636 39.1111 9.97635 30.8735 14.92 24.0183C19.8637 17.163 26.8401 12.0382 34.86 9.3705C42.8798 6.70283 51.5359 6.62772 59.6008 9.15584C67.6658 11.684 74.7301 16.687 79.7919 23.4554C84.8538 30.2238 87.6563 38.4141 87.8021 46.8647C87.9478 55.3153 85.4293 63.5973 80.6038 70.5363C75.7783 77.4752 68.8907 82.7188 60.9178 85.5235C52.9448 88.3282 44.2912 88.5516 36.1842 86.162C35.3694 85.8625 34.4746 85.8625 33.6597 86.162L20.3056 92.272L23.1227 82.4301C23.3235 81.7454 23.3196 81.0169 23.1116 80.3343C22.9036 79.6518 22.5005 79.0449 21.952 78.5885C17.5681 74.9673 13.9912 70.4682 11.4516 65.3807Z" fill="#FF9E9E"/>
<path d="M47.5627 0C34.9483 0 22.8505 5.01106 13.9308 13.9308C5.01106 22.8505 0 34.9483 0 47.5627V51.5141C0.0824789 52.4844 0.547046 53.3823 1.2915 54.0101C2.03596 54.6379 2.99932 54.9442 3.96966 54.8618C4.94 54.7793 5.83783 54.3147 6.46564 53.5703C7.09346 52.8258 7.39982 51.8624 7.31734 50.8921V47.5261C7.31642 39.0743 9.9764 30.8366 14.9201 23.9814C19.8638 17.1261 26.8402 12.0013 34.86 9.33362C42.8798 6.66594 51.536 6.59084 59.6009 9.11896C67.6658 11.6471 74.7301 16.6501 79.792 23.4185C84.8539 30.1869 87.6564 38.3772 87.8021 46.8278C87.9478 55.2784 85.4294 63.5605 80.6039 70.4994C75.7784 77.4383 68.8908 82.6819 60.9178 85.4866C52.9449 88.2913 44.2913 88.5147 36.1843 86.1251C35.3694 85.8256 34.4746 85.8256 33.6598 86.1251L20.3056 92.2717L23.1228 82.4299C23.286 81.7714 23.263 81.0806 23.0562 80.4345C22.8495 79.7884 22.4672 79.2125 21.952 78.7712C17.5766 75.1364 14.0119 70.6245 11.4882 65.5268C11.2837 65.0816 10.9919 64.6819 10.63 64.3516C10.2681 64.0213 9.84357 63.7671 9.38156 63.604C8.91956 63.4408 8.4295 63.3722 7.94045 63.4021C7.45141 63.4319 6.97335 63.5597 6.53463 63.7779C6.09591 63.996 5.70547 64.3 5.38648 64.6719C5.06749 65.0438 4.82645 65.476 4.67765 65.9428C4.52885 66.4096 4.47533 66.9015 4.52026 67.3894C4.56519 67.8773 4.70765 68.3512 4.93921 68.783C7.55983 74.0729 11.1317 78.8353 15.4762 82.8323L10.976 97.7963C10.7823 98.4668 10.7843 99.1787 10.982 99.8481C11.1797 100.518 11.5647 101.116 12.0916 101.574C12.6186 102.032 13.2654 102.329 13.9559 102.431C14.6463 102.533 15.3516 102.436 15.9884 102.15L35.3062 93.5522C41.8399 95.2757 48.6659 95.5872 55.3295 94.4659C61.993 93.3447 68.3412 90.8165 73.9511 87.0496C79.561 83.2828 84.3039 78.3639 87.8639 72.6205C91.4239 66.8771 93.7192 60.4411 94.597 53.7411C95.4748 47.0411 94.9149 40.231 92.9546 33.7644C90.9942 27.2977 87.6786 21.323 83.2283 16.2382C78.7781 11.1534 73.2954 7.07517 67.1456 4.27521C60.9958 1.47525 54.3199 0.0178211 47.5627 0Z" fill="#BC4352"/>
<path d="M39.8797 62.197H40.2456C40.7271 62.1998 41.2044 62.1075 41.6501 61.9254C42.0959 61.7434 42.5013 61.4751 42.8432 61.136L64.7952 39.184C65.3946 38.4841 65.7078 37.5838 65.6723 36.663C65.6367 35.7422 65.255 34.8687 64.6034 34.2171C63.9518 33.5655 63.0783 33.1838 62.1575 33.1482C61.2367 33.1127 60.3364 33.4259 59.6365 34.0253L40.8309 52.8308L36.0015 45.5135C35.7483 45.0852 35.4104 44.713 35.0085 44.4198C34.6065 44.1265 34.149 43.9183 33.6638 43.8079C33.1787 43.6975 32.6761 43.6872 32.1869 43.7777C31.6976 43.8682 31.2319 44.0575 30.8183 44.334C30.4047 44.6106 30.0519 44.9686 29.7814 45.3862C29.5109 45.8038 29.3284 46.2721 29.245 46.7627C29.1617 47.2532 29.1793 47.7556 29.2968 48.239C29.4142 48.7225 29.629 49.177 29.9281 49.5746L37.2455 60.5506C37.5368 61.0015 37.9239 61.3827 38.3792 61.6673C38.8344 61.9518 39.3467 62.1327 39.8797 62.197Z" fill="white"/>
</svg>
