<svg width="45" height="40" viewBox="0 0 45 40" fill="none" xmlns="http://www.w3.org/2000/svg">
<path d="M44.5312 14.2594V20.9203C44.5312 25.4343 42.8484 29.7 39.9469 32.9484L39.9282 32.9343L39.9469 32.9578H27.7969C25.1813 29.8546 23.7469 25.9265 23.7469 21.8719V7.55157C23.7469 6.37032 24.7595 5.4234 25.9689 5.53593C27.0236 5.63436 27.797 6.58119 27.797 7.64065V5.89691C27.797 4.7863 28.6952 3.87192 29.822 3.87192C30.9423 3.87192 31.847 4.7766 31.847 5.89691V2.49374C31.847 1.36884 32.7469 0.46875 33.872 0.46875C34.9876 0.46875 35.8969 1.37343 35.8969 2.49374V4.66874C35.8969 3.54384 36.7969 2.64375 37.9219 2.64375C39.0376 2.64375 39.9469 3.54843 39.9469 4.66874V16.364C39.9469 15.4406 40.3219 14.6063 40.9267 14.0015C41.5313 13.3968 42.3704 13.0218 43.2938 13.0218C43.9781 13.0219 44.5312 13.5749 44.5312 14.2594ZM21.2532 7.55157V21.8718C21.2532 25.9265 19.8189 29.8546 17.2032 32.9577H5.05332L5.07202 32.9342L5.05332 32.9483C2.15179 29.7 0.468994 25.4343 0.468994 20.9202V14.2593C0.468994 13.5749 1.02214 13.0218 1.70651 13.0218C2.62997 13.0218 3.46904 13.3968 4.07368 14.0015C4.67833 14.6062 5.05341 15.4406 5.05341 16.364V4.66874C5.05341 3.54843 5.96276 2.64375 7.0784 2.64375C8.20426 2.64375 9.10338 3.54481 9.10338 4.66874V2.49374C9.10338 1.37343 10.0127 0.46875 11.1284 0.46875C12.2542 0.46875 13.1534 1.36981 13.1534 2.49374V5.89682C13.1534 4.77651 14.058 3.87183 15.1783 3.87183C16.3065 3.87183 17.2033 4.78745 17.2033 5.89682V7.64056C17.2033 6.58119 17.9768 5.63427 19.0315 5.53585C20.2407 5.42349 21.2532 6.37032 21.2532 7.55157Z" fill="#FDECE5"/>
<path d="M27.1492 38.5966H40.5924C41.4223 38.5966 42.095 37.9239 42.095 37.094V34.4579C42.095 33.6281 41.4223 32.9553 40.5924 32.9553H27.1492C26.3193 32.9553 25.6466 33.6281 25.6466 34.4579V37.094C25.6466 37.9239 26.3193 38.5966 27.1492 38.5966ZM17.8507 38.5966H4.40765C3.57776 38.5966 2.90503 37.9239 2.90503 37.094V34.4579C2.90503 33.6281 3.57776 32.9553 4.40765 32.9553H17.8508C18.6807 32.9553 19.3534 33.6281 19.3534 34.4579V37.094C19.3534 37.9239 18.6806 38.5966 17.8507 38.5966Z" fill="#8AB9FF"/>
<path d="M33.9444 16.2504C33.477 23.1126 26.4619 29.1569 23.6516 31.3156C22.9708 31.8386 22.0296 31.8386 21.3487 31.3156C18.5384 29.1569 11.5233 23.1126 11.056 16.2504C10.8121 12.6692 13.4381 9.42119 17.024 9.26333C19.2981 9.16323 21.321 10.2739 22.5002 12.0063C23.6794 10.2739 25.7023 9.16323 27.9764 9.26333C31.5622 9.42111 34.1882 12.6692 33.9444 16.2504Z" fill="#FF9E9E"/>
<path d="M45 14.2589C45 13.3172 44.234 12.5509 43.2921 12.5509C42.144 12.5509 41.1152 13.0633 40.4158 13.8687V4.66882C40.4158 3.29372 39.297 2.17491 37.9219 2.17491C37.3453 2.17491 36.8065 2.37714 36.3648 2.73194V2.49346C36.3648 1.11881 35.2463 0 33.8716 0C32.4967 0 31.3782 1.11881 31.3782 2.49346V3.9639C30.9502 3.61862 30.4137 3.40308 29.8224 3.40308C28.5303 3.40308 27.4771 4.39489 27.3534 5.6549C26.98 5.33273 26.52 5.11569 26.0111 5.06798C24.5399 4.92784 23.2783 6.08845 23.2783 7.55042V10.4438C23.0023 10.6841 22.7376 10.9397 22.5001 11.2266C22.2627 10.9397 21.998 10.6841 21.7219 10.4437V7.55033C21.7219 6.09418 20.4665 4.92705 18.9892 5.06789C18.4802 5.1156 18.0202 5.33264 17.6467 5.6549C17.5231 4.39489 16.4698 3.40299 15.1776 3.40299C14.5864 3.40299 14.0498 3.61854 13.6219 3.96381V2.49355C13.6219 1.1189 12.5034 8.8144e-05 11.1285 8.8144e-05C9.75382 8.8144e-05 8.63527 1.1189 8.63527 2.49355V2.73441C8.20745 2.38913 7.6708 2.17359 7.07956 2.17359C5.70464 2.17359 4.58609 3.2924 4.58609 4.66705V13.8708C3.88655 13.0642 2.85699 12.551 1.70793 12.551C0.766127 12.551 0 13.3173 0 14.259V20.9222C0 25.1594 1.44309 29.2401 4.07881 32.5198C3.14865 32.6774 2.43623 33.4836 2.43623 34.4581V37.0939C2.43623 38.1811 3.32062 39.0654 4.40759 39.0654H17.8507C18.9376 39.0654 19.822 38.1811 19.822 37.0939V34.4581C19.822 33.4731 19.0938 32.6619 18.149 32.5167C18.6524 31.8498 19.0989 31.1469 19.4978 30.4196C20.0847 30.9191 20.6189 31.3461 21.0631 31.6873C21.8991 32.3297 23.0824 32.3437 23.9371 31.6873C24.3802 31.3469 24.9129 30.9211 25.498 30.4232C25.8989 31.1489 26.3478 31.8502 26.8509 32.5166C25.9061 32.6618 25.1779 33.4731 25.1779 34.458V37.0938C25.1779 38.181 26.0623 39.0654 27.1492 39.0654H40.5923C41.6793 39.0654 42.5637 38.181 42.5637 37.0938V34.458C42.5637 33.4834 41.8513 32.6773 40.9211 32.5197C43.5568 29.24 44.9999 25.1593 44.9999 20.9221L45 14.2589ZM29.8224 4.34057C30.6803 4.34057 31.3782 5.03861 31.3782 5.89646V9.93126C30.4532 9.29901 29.3912 8.91652 28.2666 8.82048V5.89646C28.2666 5.0387 28.9646 4.34057 29.8224 4.34057ZM24.2158 7.55042C24.2158 6.65474 24.9885 5.90925 25.9235 6.00185C26.711 6.07558 27.3278 6.7947 27.3278 7.63879V8.80443C26.2116 8.86404 25.1481 9.19089 24.2157 9.75205V7.55042H24.2158ZM19.077 6.00176C20.0007 5.90819 20.7845 6.64627 20.7845 7.55033V9.75205C19.8515 9.19044 18.7874 8.86334 17.6723 8.80399V7.6387C17.6723 6.79461 18.2892 6.07549 19.077 6.00176ZM15.1777 4.34057C16.0356 4.34057 16.7336 5.03861 16.7336 5.89646V8.82048C15.609 8.91652 14.547 9.29892 13.622 9.93126V5.89646C13.622 5.0387 14.3199 4.34057 15.1777 4.34057ZM18.8847 34.4581V37.0939C18.8847 37.6642 18.421 38.128 17.8508 38.128H4.40777C3.8376 38.128 3.37389 37.6642 3.37389 37.0939V34.4581C3.37389 33.8878 3.8376 33.424 4.40777 33.424H17.8508C18.421 33.424 18.8847 33.8877 18.8847 34.4581ZM16.9838 32.4865H5.27523C2.47838 29.2846 0.937662 25.1874 0.937662 20.9221V14.2589C0.937662 13.834 1.28329 13.4884 1.70811 13.4884C3.29337 13.4884 4.5831 14.778 4.5831 16.3631C4.59668 16.4129 4.1924 20.3875 7.732 21.6952C9.32229 22.2834 10.3907 23.8219 10.3907 25.5239V28.4677C10.3907 28.7268 10.6006 28.9365 10.8594 28.9365C11.1182 28.9365 11.3281 28.7268 11.3281 28.4677V25.5239C11.3281 23.4314 10.0137 21.5395 8.05699 20.8162C6.54626 20.2574 5.53055 18.7494 5.52208 17.0588C5.52217 17.056 5.52367 17.0536 5.52367 17.0507V4.66697C5.52367 3.80912 6.22171 3.11108 7.07956 3.11108C7.93741 3.11108 8.63527 3.80912 8.63527 4.66697V17.3621C8.63527 17.6212 8.84517 17.8308 9.10401 17.8308C9.36286 17.8308 9.57276 17.6212 9.57276 17.3621V2.49355C9.57276 1.6357 10.2706 0.937662 11.1285 0.937662C11.9863 0.937662 12.6844 1.6357 12.6844 2.49355V10.7053C11.1521 12.2211 10.4519 14.2869 10.588 16.2823C10.9663 21.8371 15.4459 26.8193 18.7773 29.7915C18.2684 30.74 17.6738 31.6457 16.9838 32.4865ZM23.3661 30.9438C22.8562 31.3348 22.1437 31.3348 21.6342 30.9438C18.7446 28.7241 11.9748 22.8455 11.5234 16.2181C11.2934 12.8427 13.8196 9.7256 17.3079 9.7256C19.2379 9.7256 21.0193 10.6641 22.1126 12.2699C22.287 12.5262 22.7132 12.5262 22.8875 12.2699C24.0303 10.5908 25.9195 9.64411 27.9556 9.73159C31.3102 9.8794 33.7003 12.9356 33.4766 16.2181C33.0254 22.8456 26.2556 28.7242 23.3661 30.9438ZM41.6263 34.4581V37.0939C41.6263 37.6642 41.1626 38.128 40.5924 38.128H27.1493C26.5792 38.128 26.1154 37.6642 26.1154 37.0939V34.4581C26.1154 33.8878 26.5792 33.424 27.1493 33.424H40.5924C41.1626 33.424 41.6263 33.8877 41.6263 34.4581ZM44.0625 20.9221C44.0625 25.1874 42.5218 29.2847 39.7249 32.4865H28.0163C27.3264 31.6457 26.7316 30.7401 26.2227 29.7915C29.5539 26.8192 34.0337 21.837 34.412 16.2822C34.5476 14.2934 33.8524 12.2254 32.3156 10.7052V2.49355C32.3156 1.6357 33.0137 0.937662 33.8715 0.937662C34.7294 0.937662 35.4272 1.6357 35.4272 2.49355V17.3621C35.4272 17.6237 35.6403 17.8313 35.8969 17.8313C36.1557 17.8313 36.3656 17.6216 36.3656 17.3625V4.66882C36.3656 3.80859 37.0502 3.1124 37.9218 3.1124C38.7801 3.1124 39.4782 3.81044 39.4782 4.66882V17.039C39.4782 17.0406 39.4791 17.042 39.4792 17.0437C39.4769 18.7406 38.4584 20.2559 36.9431 20.8164C34.9864 21.5397 33.672 23.4316 33.672 25.524V28.4679C33.672 28.727 33.8818 28.9366 34.1407 28.9366C34.3995 28.9366 34.6094 28.727 34.6094 28.4679V25.524C34.6094 23.8221 35.6779 22.2836 37.2681 21.6953C39.1515 20.9995 40.417 19.1278 40.417 17.0381V16.3633C40.417 14.7781 41.7067 13.4886 43.292 13.4886C43.7168 13.4886 44.0624 13.8342 44.0624 14.259V20.9221H44.0625Z" fill="#81889A"/>
</svg>
