<svg width="25" height="34" viewBox="0 0 25 34" fill="none" xmlns="http://www.w3.org/2000/svg">
<path d="M15.1505 26.1302V15.6864H1.16541V11.289C1.16541 8.66494 2.27047 6.14833 4.2375 4.29282C6.20453 2.43731 8.8724 1.3949 11.6542 1.3949C14.436 1.3949 17.1039 2.43731 19.0709 4.29282C21.0379 6.14833 22.143 8.66494 22.143 11.289V21.7328L23.8911 28.8786L15.1505 26.1302Z" fill="#3E3D42"/>
<path d="M22.143 33.276H1.16541L1.41597 29.6482C1.50567 27.958 2.28061 26.365 3.58049 25.1987C4.88037 24.0323 6.60575 23.3819 8.39976 23.3819H14.9086C16.7026 23.3819 18.428 24.0323 19.7279 25.1987C21.0278 26.365 21.8027 27.958 21.8924 29.6482L22.143 33.276Z" fill="#FF9E9E"/>
<path d="M20.3949 8.54067C22.3259 8.54067 23.8912 7.06408 23.8912 5.24262C23.8912 3.42116 22.3259 1.94458 20.3949 1.94458C18.464 1.94458 16.8987 3.42116 16.8987 5.24262C16.8987 7.06408 18.464 8.54067 20.3949 8.54067Z" fill="#3E3D42"/>
<path d="M4.07891 17.3354H2.62213C2.08122 17.3354 1.56247 17.1328 1.17999 16.772C0.797516 16.4112 0.582642 15.9218 0.582642 15.4116C0.582642 14.9014 0.797516 14.412 1.17999 14.0512C1.56247 13.6904 2.08122 13.4877 2.62213 13.4877H4.07891V17.3354ZM19.2294 17.3354H20.6862C21.2271 17.3354 21.7458 17.1328 22.1283 16.772C22.5108 16.4112 22.7256 15.9218 22.7256 15.4116C22.7256 14.9014 22.5108 14.412 22.1283 14.0512C21.7458 13.6904 21.2271 13.4877 20.6862 13.4877H19.2294V17.3354Z" fill="#FFCBBE"/>
<path d="M11.6543 23.9316C9.49066 23.9316 7.41566 23.1208 5.88575 21.6776C4.35583 20.2344 3.49634 18.2771 3.49634 16.2361V11.8387H8.74073C9.97709 11.8387 11.1628 11.3754 12.037 10.5508C12.9113 9.7261 13.4024 8.60761 13.4024 7.44135L16.316 11.8387L17.4814 9.09037L18.3555 11.1478C18.4419 11.3515 18.5909 11.5262 18.7835 11.6493C18.976 11.7725 19.2032 11.8384 19.4358 11.8387H19.8122V16.2361C19.8122 18.2771 18.9527 20.2344 17.4228 21.6776C15.8929 23.1208 13.8179 23.9316 11.6543 23.9316Z" fill="#FFDDCE"/>
<path d="M11.6542 23.9316C12.8488 23.934 14.029 23.6862 15.1097 23.206C15.098 23.2665 15.0805 23.3214 15.0631 23.3819C14.5328 25.3003 11.6542 28.329 11.6542 28.329C11.6542 28.329 8.77561 25.3003 8.24535 23.3819C8.22787 23.3214 8.21038 23.2665 8.19873 23.206C9.27941 23.6862 10.4596 23.934 11.6542 23.9316Z" fill="#FFCBBE"/>
<path d="M17.3531 23.7996C17.3442 23.8442 17.3326 23.8883 17.3182 23.9316C16.6772 26.2512 13.9326 29.2249 13.3907 29.7966L11.6542 31.6215L9.91776 29.7966C9.37583 29.2249 6.63127 26.2512 5.99029 23.9371C5.97589 23.8919 5.96421 23.846 5.95532 23.7996C6.68751 23.5372 7.46223 23.3958 8.24538 23.3819C8.77564 25.3003 11.6542 28.329 11.6542 28.329C11.6542 28.329 14.5328 25.3003 15.0631 23.3819C15.8462 23.3958 16.621 23.5372 17.3531 23.7996Z" fill="#DD636E"/>
<path d="M22.7257 21.6724V16.9452C23.1025 16.5131 23.3084 15.971 23.3084 15.4116C23.3084 14.8521 23.1025 14.3101 22.7257 13.878V11.289C22.7241 10.3849 22.5967 9.48497 22.347 8.61212C22.8566 8.34985 23.3009 7.98786 23.6501 7.55041C23.9993 7.11296 24.2454 6.61016 24.3718 6.07569C24.4983 5.54122 24.5022 4.98743 24.3832 4.45143C24.2643 3.91543 24.0253 3.4096 23.6822 2.96783C23.3391 2.52607 22.8999 2.15857 22.394 1.88997C21.8881 1.62137 21.3272 1.45787 20.7489 1.41042C20.1705 1.36298 19.5881 1.43268 19.0406 1.61487C18.4932 1.79705 17.9933 2.08751 17.5746 2.46677C15.9006 1.46604 13.9724 0.907672 11.9915 0.850001C10.0107 0.792331 8.04969 1.23747 6.31347 2.13892C4.57726 3.04038 3.1295 4.36507 2.12142 5.97463C1.11335 7.58419 0.581942 9.41956 0.582711 11.289V13.878C0.206819 14.3105 0.000960637 14.8523 0 15.4116C0.00107878 16.0673 0.277692 16.6959 0.769216 17.1595C1.26074 17.6232 1.92708 17.8841 2.6222 17.8851H3.08837C3.54542 19.9706 4.83736 21.8094 6.69534 23.0191C5.09511 23.3737 3.65946 24.2073 2.60289 25.3951C1.54632 26.583 0.925533 28.0615 0.833276 29.6097L0.582711 33.243C0.578615 33.3178 0.590622 33.3925 0.618008 33.4628C0.645394 33.5331 0.68759 33.5974 0.742049 33.6518C0.796508 33.7063 0.862101 33.7498 0.934866 33.7796C1.00763 33.8095 1.08606 33.8252 1.16542 33.8257H22.143C22.2224 33.8252 22.3008 33.8095 22.3736 33.7796C22.4463 33.7498 22.5119 33.7063 22.5664 33.6518C22.6208 33.5974 22.663 33.5331 22.6904 33.4628C22.7178 33.3925 22.7298 33.3178 22.7257 33.243L22.4751 29.6207C22.464 29.4107 22.4406 29.2015 22.4052 28.994L23.7047 29.4008C23.7652 29.418 23.8279 29.4272 23.8911 29.4283C23.9789 29.428 24.0655 29.409 24.1444 29.3728C24.2233 29.3366 24.2925 29.284 24.3468 29.219C24.4012 29.154 24.4393 29.0782 24.4582 28.9974C24.4772 28.9166 24.4766 28.8327 24.4564 28.7522L22.7257 21.6724ZM20.3949 2.49425C21.0229 2.49306 21.6345 2.68371 22.1381 3.03767C22.6417 3.39164 23.0102 3.88989 23.1886 4.4579C23.3671 5.02591 23.3457 5.63315 23.1278 6.18877C22.9099 6.74439 22.5072 7.21853 21.9798 7.54026C21.4273 6.17618 20.5777 4.93656 19.4858 3.90142C19.1873 3.62649 18.8741 3.36598 18.5477 3.12088C19.0667 2.71451 19.7204 2.49275 20.3949 2.49425ZM22.143 15.4116C22.143 15.776 21.9895 16.1256 21.7163 16.3833C21.4431 16.641 21.0726 16.7858 20.6862 16.7858H20.3657C20.3774 16.6044 20.3949 16.423 20.3949 16.2361V14.0374H20.6862C21.0722 14.0387 21.4419 14.1839 21.7148 14.4413C21.9877 14.6988 22.1416 15.0475 22.143 15.4116ZM2.6222 16.7858C2.23584 16.7858 1.8653 16.641 1.5921 16.3833C1.3189 16.1256 1.16542 15.776 1.16542 15.4116C1.1668 15.0475 1.32073 14.6988 1.59363 14.4413C1.86653 14.1839 2.23626 14.0387 2.6222 14.0374H2.91355V16.2361C2.91355 16.423 2.93103 16.6044 2.94269 16.7858H2.6222ZM2.91355 11.8387V12.9381H2.6222C2.32399 12.94 2.02834 12.9902 1.74813 13.0865V11.289C1.74813 8.81073 2.79181 6.43393 4.64956 4.68151C6.50731 2.92908 9.02696 1.94458 11.6542 1.94458C14.2815 1.94458 16.8011 2.92908 18.6589 4.68151C20.5166 6.43393 21.5603 8.81073 21.5603 11.289V13.0865C21.2801 12.9902 20.9844 12.94 20.6862 12.9381H20.3949V11.8387C20.3949 11.6929 20.3335 11.5531 20.2242 11.45C20.1149 11.3469 19.9667 11.289 19.8122 11.289H19.4334C19.3174 11.2891 19.2042 11.256 19.1085 11.1942C19.0128 11.1324 18.9392 11.0448 18.8973 10.9427L18.0232 8.88696C17.9803 8.78443 17.9056 8.69646 17.809 8.63447C17.7124 8.57247 17.5982 8.53933 17.4813 8.53933C17.3645 8.53933 17.2503 8.57247 17.1536 8.63447C17.057 8.69646 16.9824 8.78443 16.9394 8.88696L16.1994 10.6294L13.8976 7.14999C13.8295 7.04893 13.7287 6.97132 13.61 6.92873C13.4913 6.88614 13.3613 6.88085 13.2392 6.91363C13.1181 6.94693 13.0118 7.01637 12.9362 7.11151C12.8605 7.20666 12.8196 7.32239 12.8196 7.44132C12.8184 8.46144 12.3883 9.43944 11.6236 10.1608C10.8589 10.8821 9.82209 11.2879 8.74066 11.289H3.49626C3.34172 11.289 3.1935 11.3469 3.08422 11.45C2.97495 11.5531 2.91355 11.6929 2.91355 11.8387ZM4.07897 16.2361V12.3884H8.74066C9.84808 12.3876 10.9269 12.0564 11.8228 11.4424C12.7186 10.8283 13.3857 9.96271 13.7287 8.96941L15.8206 12.13C15.8779 12.2164 15.9594 12.2862 16.056 12.3318C16.1526 12.3774 16.2607 12.3969 16.3683 12.3884C16.4755 12.3777 16.5775 12.3399 16.6637 12.2789C16.7499 12.218 16.817 12.1361 16.8578 12.0421L17.4813 10.569L17.8135 11.3495C17.9282 11.6261 18.1206 11.8679 18.3701 12.049C18.6196 12.2301 18.9167 12.3436 19.2295 12.3774V16.2361C19.2295 18.1313 18.4313 19.9488 17.0107 21.2889C15.5901 22.629 13.6633 23.3819 11.6542 23.3819C9.64513 23.3819 7.71834 22.629 6.29771 21.2889C4.87708 19.9488 4.07897 18.1313 4.07897 16.2361ZM14.1133 24.1404C13.4202 25.3327 12.596 26.4529 11.6542 27.4824C10.7156 26.4538 9.89337 25.3356 9.201 24.1459C9.99776 24.3668 10.8238 24.4797 11.6542 24.4812C12.4871 24.481 13.3155 24.3662 14.1133 24.1404ZM7.83163 23.959C8.62994 25.9543 11.1065 28.5763 11.223 28.6972C11.2774 28.7543 11.3439 28.7999 11.4182 28.8311C11.4925 28.8624 11.5729 28.8785 11.6542 28.8785C11.7355 28.8785 11.816 28.8624 11.8903 28.8311C11.9646 28.7999 12.031 28.7543 12.0854 28.6972C12.202 28.5763 14.661 25.9763 15.471 23.959C15.8653 23.9928 16.2554 24.0609 16.6364 24.1624C15.8614 26.3006 13.4548 28.9061 12.9537 29.4283L11.6542 30.797L10.3548 29.4283C9.85364 28.9061 7.45287 26.3061 6.67204 24.1624C7.05106 24.0609 7.43926 23.9928 7.83163 23.959ZM1.78892 32.7263L1.9987 29.6756C2.06163 28.5996 2.42664 27.5586 3.05635 26.6594C3.68605 25.7602 4.55782 25.035 5.58237 24.5582C6.45643 26.8998 8.96209 29.6152 9.48653 30.1648L11.223 31.9897C11.2774 32.0468 11.3439 32.0924 11.4182 32.1237C11.4925 32.1549 11.5729 32.1711 11.6542 32.1711C11.7355 32.1711 11.816 32.1549 11.8903 32.1237C11.9646 32.0924 12.031 32.0468 12.0854 31.9897L13.8219 30.1648C14.3463 29.6152 16.852 26.8998 17.7261 24.5582C18.7521 25.0346 19.625 25.7605 20.2549 26.6609C20.8848 27.5613 21.2489 28.6038 21.3097 29.6811L21.5195 32.7263H1.78892ZM22.0906 27.7353C21.6782 26.5746 20.9587 25.5323 20.0002 24.7071C19.0418 23.8818 17.8759 23.3008 16.6131 23.0191C18.4711 21.8094 19.763 19.9706 20.2201 17.8851H20.6862C20.9849 17.8823 21.2807 17.8303 21.5603 17.7312V21.7328C21.5604 21.7755 21.5662 21.818 21.5778 21.8593L23.087 28.0486L22.0906 27.7353Z" fill="black"/>
<path d="M8.15778 15.6864C8.31233 15.6864 8.46054 15.6285 8.56982 15.5254C8.6791 15.4223 8.74049 15.2825 8.74049 15.1368V14.0374C8.74049 13.8916 8.6791 13.7518 8.56982 13.6487C8.46054 13.5456 8.31233 13.4877 8.15778 13.4877C8.00324 13.4877 7.85502 13.5456 7.74574 13.6487C7.63647 13.7518 7.57507 13.8916 7.57507 14.0374V15.1368C7.57507 15.2825 7.63647 15.4223 7.74574 15.5254C7.85502 15.6285 8.00324 15.6864 8.15778 15.6864ZM15.1503 15.6864C15.3049 15.6864 15.4531 15.6285 15.5624 15.5254C15.6716 15.4223 15.733 15.2825 15.733 15.1368V14.0374C15.733 13.8916 15.6716 13.7518 15.5624 13.6487C15.4531 13.5456 15.3049 13.4877 15.1503 13.4877C14.9958 13.4877 14.8476 13.5456 14.7383 13.6487C14.629 13.7518 14.5676 13.8916 14.5676 14.0374V15.1368C14.5676 15.2825 14.629 15.4223 14.7383 15.5254C14.8476 15.6285 14.9958 15.6864 15.1503 15.6864ZM15.733 18.4348H14.5676C14.5676 19.3286 13.2332 20.0838 11.654 20.0838C10.0749 20.0838 8.74049 19.3286 8.74049 18.4348H7.57507C7.57507 19.9739 9.36691 21.1832 11.654 21.1832C13.9412 21.1832 15.733 19.9739 15.733 18.4348Z" fill="black"/>
</svg>
