<svg width="41" height="45" viewBox="0 0 41 45" fill="none" xmlns="http://www.w3.org/2000/svg">
<path d="M9.30068 43.6163C13.885 43.6163 17.6014 39.4489 17.6014 34.3082C17.6014 29.1674 13.885 25 9.30068 25C4.71634 25 1 29.1674 1 34.3082C1 39.4489 4.71634 43.6163 9.30068 43.6163Z" fill="#FF9E9E"/>
<path d="M9.76689 36.2054C11.295 36.2054 12.5338 34.8163 12.5338 33.1027C12.5338 31.3891 11.295 30 9.76689 30C8.23878 30 7 31.3891 7 33.1027C7 34.8163 8.23878 36.2054 9.76689 36.2054Z" fill="#8AB9FF"/>
<path d="M9.30061 38.962C8.47975 38.962 7.67732 38.689 6.9948 38.1776C6.31228 37.6662 5.78033 36.9394 5.4662 36.0889C5.15207 35.2385 5.06988 34.3027 5.23002 33.3999C5.39016 32.4971 5.78544 31.6678 6.36588 31.017C6.94631 30.3661 7.68583 29.9228 8.49092 29.7432C9.296 29.5637 10.1305 29.6558 10.8889 30.0081C11.6472 30.3603 12.2954 30.9569 12.7515 31.7222C13.2075 32.4876 13.4509 33.3874 13.4509 34.3079C13.4509 35.5422 13.0137 36.726 12.2353 37.5988C11.457 38.4716 10.4013 38.962 9.30061 38.962ZM9.30061 32.7565C9.02699 32.7565 8.75951 32.8475 8.53201 33.018C8.3045 33.1885 8.12718 33.4307 8.02247 33.7142C7.91776 33.9977 7.89036 34.3096 7.94374 34.6106C7.99713 34.9115 8.12889 35.1879 8.32236 35.4049C8.51584 35.6218 8.76235 35.7696 9.03071 35.8294C9.29907 35.8893 9.57724 35.8586 9.83003 35.7412C10.0828 35.6237 10.2989 35.4249 10.4509 35.1698C10.6029 34.9147 10.6841 34.6147 10.6841 34.3079C10.6841 33.8964 10.5383 33.5019 10.2789 33.2109C10.0194 32.92 9.66752 32.7565 9.30061 32.7565Z" fill="#133754"/>
<path d="M34.1503 43.3082C36.4425 43.3082 38.3007 41.2245 38.3007 38.6541C38.3007 36.0837 36.4425 34 34.1503 34C31.8582 34 30 36.0837 30 38.6541C30 41.2245 31.8582 43.3082 34.1503 43.3082Z" fill="#FF9E9E"/>
<path d="M26.2854 15.5137V26.3732H16.4629C14.9919 24.7634 13.1023 23.7202 11.0675 23.3946V15.5137H26.2854Z" fill="#8AB9FF"/>
<path d="M26.2854 15.5137H19.3682V26.4042H26.2854V15.5137Z" fill="#B7D3FD"/>
<path d="M26.2855 26.3731V15.5136H11.0676V23.3945C13.1024 23.7202 14.992 24.7634 16.463 26.3731H26.2855ZM37.353 38.784C37.353 38.1704 37.1908 37.5705 36.8867 37.0603C36.5827 36.55 36.1506 36.1523 35.645 35.9175C35.1394 35.6827 34.5831 35.6212 34.0463 35.7409C33.5096 35.8607 33.0166 36.1562 32.6297 36.5901C32.2427 37.024 31.9792 37.5769 31.8724 38.1787C31.7657 38.7806 31.8204 39.4045 32.0299 39.9714C32.2393 40.5383 32.5939 41.0229 33.0489 41.3639C33.504 41.7048 34.0389 41.8868 34.5861 41.8868C35.32 41.8868 36.0237 41.5599 36.5426 40.978C37.0615 40.3961 37.353 39.6069 37.353 38.784ZM19.3682 34.13C19.3704 36.2121 18.8388 38.251 17.8366 40.0038C16.8345 41.7566 15.4042 43.1494 13.716 44.0163C12.0278 44.8831 10.153 45.1875 8.31492 44.8931C6.47683 44.5987 4.75295 43.718 3.34867 42.3559C1.94439 40.9937 0.918911 39.2076 0.394412 37.2103C-0.130087 35.213 -0.131495 33.0887 0.390355 31.0905C0.912206 29.0924 1.93531 27.3045 3.33779 25.9401C4.74026 24.5756 6.46297 23.692 8.30067 23.3945V3.10272H1.38344V0H11.0676V12.4109H34.5861V15.5136H29.0524V26.3731H35.9696V32.7648C37.2737 33.1423 38.4102 34.0403 39.1662 35.2904C39.9221 36.5404 40.2455 38.0567 40.0758 39.5551C39.9061 41.0534 39.2549 42.4309 38.2443 43.4293C37.2337 44.4278 35.933 44.9786 34.5861 44.9786C33.2393 44.9786 31.9386 44.4278 30.928 43.4293C29.9174 42.4309 29.2662 41.0534 29.0965 39.5551C28.9268 38.0567 29.2502 36.5404 30.0061 35.2904C30.762 34.0403 31.8986 33.1423 33.2027 32.7648V29.4759H18.4413C19.0589 30.9292 19.3758 32.5201 19.3682 34.13ZM9.68412 41.8868C11.0522 41.8868 12.3896 41.4318 13.5271 40.5795C14.6647 39.7272 15.5513 38.5157 16.0748 37.0984C16.5984 35.681 16.7353 34.1213 16.4684 32.6167C16.2015 31.112 15.5427 29.7299 14.5753 28.6451C13.6079 27.5603 12.3754 26.8215 11.0336 26.5222C9.69179 26.2229 8.30096 26.3765 7.03701 26.9636C5.77305 27.5507 4.69272 28.5449 3.93265 29.8205C3.17257 31.0961 2.76689 32.5958 2.76689 34.13C2.76689 36.1872 3.49566 38.1602 4.7929 39.6148C6.09013 41.0695 7.84955 41.8868 9.68412 41.8868Z" fill="#133754"/>
</svg>
