<svg width="41" height="40" viewBox="0 0 41 40" fill="none" xmlns="http://www.w3.org/2000/svg">
<path d="M25.1016 27H16.4322L5.08071 29.7294C3.24757 30.1671 2 31.5275 2 33.0506V36.2334H40.5V33.0506C38.9498 29.9189 35.8653 27.8345 32.3814 27.5644L25.1016 27Z" fill="#FF9E9E"/>
<path d="M22.7049 23.3623L23.8061 27.6121L23.4295 27.9886C21.5577 29.8604 18.5237 29.8604 16.6519 27.9886L16.2754 27.6121L17.3765 23.3623C18.2049 23.6753 19.1027 23.8467 20.0407 23.8467C20.9787 23.8468 21.8766 23.6753 22.7049 23.3623Z" fill="#FFC2A1"/>
<path d="M22.705 23.3624C21.8767 23.6753 20.9788 23.8468 20.0408 23.8468C19.1029 23.8468 18.2051 23.6752 17.3766 23.3624C14.9108 22.4286 13.0625 20.2372 12.6148 17.5713H12.5102C11.1237 17.5713 10 16.4476 10 15.0611C10 13.6746 11.1237 12.5509 12.5102 12.5509V10.8774H27.5714V12.5509C28.9579 12.5509 30.0816 13.6746 30.0816 15.0611C30.0816 16.4475 28.9579 17.5713 27.5714 17.5713H27.4668C27.0193 20.2372 25.1709 22.4286 22.705 23.3624Z" fill="#FFCDB2"/>
<path d="M27.5715 4.28809V10.8774H12.5103V4.28809L20.0408 7.11202L27.5715 4.28809Z" fill="#67A4FF"/>
<path d="M27.5714 4.28828L20.0407 7.11222L12.5102 4.28828L10 3.34697L20.0407 0L30.0816 3.34697L27.5714 4.28828Z" fill="#8AB9FF"/>
<path d="M41 36.6531V40H0V36.6531H1.67344H23.4286H34.3062H40.1633H41Z" fill="#8AB9FF"/>
</svg>
