<svg width="33" height="40" viewBox="0 0 33 40" fill="none" xmlns="http://www.w3.org/2000/svg">
<path d="M30.9679 15.842C30.9679 23.8795 16.1291 38.7091 16.1291 38.7091C16.1291 38.7091 1.29034 23.8795 1.29034 15.842C1.29034 7.80582 7.93425 1.28955 16.1291 1.28955C24.324 1.28955 30.9679 7.80582 30.9679 15.842Z" fill="#8AB9FF"/>
<path d="M16.1291 22.5815C19.6923 22.5815 22.5808 19.693 22.5808 16.1299C22.5808 12.5667 19.6923 9.67822 16.1291 9.67822C12.566 9.67822 9.67749 12.5667 9.67749 16.1299C9.67749 19.693 12.566 22.5815 16.1291 22.5815Z" fill="#B0E152"/>
<path d="M16.1292 24.516C20.7612 24.516 24.5163 20.7609 24.5163 16.1288C24.5163 11.4968 20.7612 7.7417 16.1292 7.7417C11.4971 7.7417 7.742 11.4968 7.742 16.1288C7.742 20.7609 11.4971 24.516 16.1292 24.516Z" fill="#FFA8A8"/>
<path d="M12.697 15.8968L14.9847 18.2142L19.5614 13.5806" stroke="#8AB9FF" stroke-width="2"/>
<path d="M16.1291 0C7.25037 0 0 7.09425 0 15.8427C0 20.6556 3.93164 26.3073 7.69682 31.0893C10.051 34.0645 12.5612 36.9127 15.2169 39.6221C15.4588 39.864 15.787 40 16.1291 40C16.4713 40 16.7994 39.864 17.0414 39.6221C17.0414 39.6221 20.7963 35.8713 24.5614 31.0893C28.3266 26.3073 32.2583 20.6543 32.2583 15.8427C32.2583 7.09425 25.0079 0 16.1291 0ZM16.1291 1.29033C24.324 1.29033 30.9679 7.80652 30.9679 15.8427C30.9679 23.8789 16.1291 38.71 16.1291 38.71C16.1291 38.71 1.29033 23.8789 1.29033 15.8427C1.29033 7.80523 7.93424 1.29033 16.1291 1.29033Z" fill="#4992FF"/>
</svg>
