<svg width="157" height="146" viewBox="0 0 157 146" fill="none" xmlns="http://www.w3.org/2000/svg">
<g filter="url(#filter0_d_37_780)">
<path fill-rule="evenodd" clip-rule="evenodd" d="M103.502 81.874C93.5362 81.874 84.1667 78.3765 77.1195 72.0261C62.5723 58.9163 62.5723 37.5852 77.1195 24.4759C84.1667 18.1254 93.5359 14.6279 103.502 14.6279C113.468 14.6279 122.837 18.1251 129.884 24.4759C136.931 30.8263 140.812 39.2695 140.812 48.251C140.812 57.2318 136.932 65.6753 129.884 72.0264C122.837 78.3765 113.468 81.874 103.502 81.874ZM103.502 17.3134C94.3323 17.3134 85.7111 20.5315 79.2267 26.3748C65.8417 38.4372 65.8417 58.0647 79.2267 70.1275C85.7111 75.9708 94.3324 79.1889 103.502 79.1889C112.672 79.1889 121.293 75.9708 127.777 70.1275C134.261 64.2839 137.832 56.5147 137.833 48.2514C137.833 39.9877 134.261 32.2185 127.777 26.3752C121.293 20.5322 112.672 17.3134 103.502 17.3134Z" fill="#8AB9FF"/>
</g>
<path fill-rule="evenodd" clip-rule="evenodd" d="M103.577 96.3101C89.2996 96.3101 75.8776 91.3011 65.7828 82.206C44.9432 63.4302 44.9432 32.88 65.7828 14.1044C75.878 5.00907 89.3003 0 103.577 0C117.854 0 131.275 5.00904 141.371 14.1044C162.21 32.88 162.21 63.4302 141.371 82.2058C131.275 91.3011 117.853 96.3101 103.577 96.3101ZM103.625 17.0661C90.1435 17.0661 99.1173 14.433 90.1014 17.8788C67.111 26.6655 57.7999 52.5657 77.4792 70.2962C87.0124 78.8851 90.095 80.3098 103.577 80.3098C117.058 80.3098 126.098 71.9774 135.631 63.3885C141.371 46.3223 139.238 42.259 126.165 22.3485C114.444 15.9998 116.247 19.5041 103.625 17.0661Z" fill="#8AB9FF"/>
<g filter="url(#filter1_d_37_780)">
<path fill-rule="evenodd" clip-rule="evenodd" d="M57.4947 96.88C57.4636 96.88 57.4324 96.8794 57.4013 96.8775C56.9731 96.8536 56.5767 96.6651 56.3129 96.3595C56.1909 96.2185 56.0611 96.0857 55.9271 95.965L50.2171 90.8244C50.1542 90.7678 50.0898 90.7133 50.024 90.6608C49.7157 90.4144 49.5339 90.0639 49.5215 89.693C49.5092 89.3221 49.6676 88.9626 49.9593 88.7L62.59 77.3284C63.1746 76.8027 64.1223 76.8027 64.7072 77.3284C65.2917 77.8549 65.2917 78.7082 64.7072 79.2347L53.1423 89.6462L63.8035 80.0483L69.0935 83.1834C69.6777 82.6574 70.6257 82.6574 71.2103 83.1834C71.7952 83.7096 71.7952 84.5632 71.2103 85.0894L58.5527 96.4853C58.2712 96.739 57.8904 96.88 57.4947 96.88Z" fill="#8AB9FF"/>
</g>
<g filter="url(#filter2_d_37_780)">
<path fill-rule="evenodd" clip-rule="evenodd" d="M17.3997 137.341C15.3442 137.341 13.4164 136.631 11.9713 135.343L6.2408 130.236C4.79603 128.948 4 127.23 4 125.398C4 123.566 4.79567 121.848 6.2408 120.561L41.441 89.1882C42.8858 87.9003 44.8136 87.1911 46.8691 87.1911C48.9247 87.1911 50.8525 87.9003 52.2976 89.1886L58.0274 94.295C59.4725 95.5833 60.2686 97.3014 60.2686 99.1331C60.2686 100.965 59.4725 102.683 58.0274 103.971L22.8278 135.343C21.383 136.631 19.4549 137.341 17.3997 137.341Z" fill="#FFA8A8"/>
</g>
<g filter="url(#filter3_d_37_780)">
<path fill-rule="evenodd" clip-rule="evenodd" d="M49.2901 111.413C48.9072 111.413 48.5246 111.281 48.2324 111.018L33.8376 98.0421C33.2537 97.5158 33.2537 96.6624 33.8376 96.1358C34.4219 95.6098 35.3686 95.6098 35.9526 96.1361L50.347 109.112C50.9313 109.638 50.9313 110.491 50.347 111.018C50.0556 111.281 49.6723 111.413 49.2901 111.413ZM30.0063 128.794C29.6237 128.794 29.2411 128.663 28.949 128.4L14.5538 115.424C13.9699 114.898 13.9699 114.044 14.5538 113.518C15.1377 112.992 16.0844 112.992 16.6687 113.518L31.0635 126.493C31.6478 127.02 31.6478 127.873 31.0635 128.4C30.7721 128.663 30.3892 128.794 30.0063 128.794Z" fill="#8AB9FF"/>
</g>
<defs>
<filter id="filter0_d_37_780" x="62.2091" y="14.6279" width="82.6033" height="75.2461" filterUnits="userSpaceOnUse" color-interpolation-filters="sRGB">
<feFlood flood-opacity="0" result="BackgroundImageFix"/>
<feColorMatrix in="SourceAlpha" type="matrix" values="0 0 0 0 0 0 0 0 0 0 0 0 0 0 0 0 0 0 127 0" result="hardAlpha"/>
<feOffset dy="4"/>
<feGaussianBlur stdDeviation="2"/>
<feComposite in2="hardAlpha" operator="out"/>
<feColorMatrix type="matrix" values="0 0 0 0 0 0 0 0 0 0 0 0 0 0 0 0 0 0 0.25 0"/>
<feBlend mode="normal" in2="BackgroundImageFix" result="effect1_dropShadow_37_780"/>
<feBlend mode="normal" in="SourceGraphic" in2="effect1_dropShadow_37_780" result="shape"/>
</filter>
<filter id="filter1_d_37_780" x="45.5209" y="76.9341" width="30.1281" height="27.9459" filterUnits="userSpaceOnUse" color-interpolation-filters="sRGB">
<feFlood flood-opacity="0" result="BackgroundImageFix"/>
<feColorMatrix in="SourceAlpha" type="matrix" values="0 0 0 0 0 0 0 0 0 0 0 0 0 0 0 0 0 0 127 0" result="hardAlpha"/>
<feOffset dy="4"/>
<feGaussianBlur stdDeviation="2"/>
<feComposite in2="hardAlpha" operator="out"/>
<feColorMatrix type="matrix" values="0 0 0 0 0 0 0 0 0 0 0 0 0 0 0 0 0 0 0.25 0"/>
<feBlend mode="normal" in2="BackgroundImageFix" result="effect1_dropShadow_37_780"/>
<feBlend mode="normal" in="SourceGraphic" in2="effect1_dropShadow_37_780" result="shape"/>
</filter>
<filter id="filter2_d_37_780" x="0" y="87.1911" width="64.2686" height="58.1496" filterUnits="userSpaceOnUse" color-interpolation-filters="sRGB">
<feFlood flood-opacity="0" result="BackgroundImageFix"/>
<feColorMatrix in="SourceAlpha" type="matrix" values="0 0 0 0 0 0 0 0 0 0 0 0 0 0 0 0 0 0 127 0" result="hardAlpha"/>
<feOffset dy="4"/>
<feGaussianBlur stdDeviation="2"/>
<feComposite in2="hardAlpha" operator="out"/>
<feColorMatrix type="matrix" values="0 0 0 0 0 0 0 0 0 0 0 0 0 0 0 0 0 0 0.25 0"/>
<feBlend mode="normal" in2="BackgroundImageFix" result="effect1_dropShadow_37_780"/>
<feBlend mode="normal" in="SourceGraphic" in2="effect1_dropShadow_37_780" result="shape"/>
</filter>
<filter id="filter3_d_37_780" x="10.1158" y="95.7413" width="44.6694" height="41.0532" filterUnits="userSpaceOnUse" color-interpolation-filters="sRGB">
<feFlood flood-opacity="0" result="BackgroundImageFix"/>
<feColorMatrix in="SourceAlpha" type="matrix" values="0 0 0 0 0 0 0 0 0 0 0 0 0 0 0 0 0 0 127 0" result="hardAlpha"/>
<feOffset dy="4"/>
<feGaussianBlur stdDeviation="2"/>
<feComposite in2="hardAlpha" operator="out"/>
<feColorMatrix type="matrix" values="0 0 0 0 0 0 0 0 0 0 0 0 0 0 0 0 0 0 0.25 0"/>
<feBlend mode="normal" in2="BackgroundImageFix" result="effect1_dropShadow_37_780"/>
<feBlend mode="normal" in="SourceGraphic" in2="effect1_dropShadow_37_780" result="shape"/>
</filter>
</defs>
</svg>
