<svg width="41" height="41" viewBox="0 0 41 41" fill="none" xmlns="http://www.w3.org/2000/svg">
<path d="M17.2165 7.65189C19.3295 7.65189 21.0425 5.93895 21.0425 3.82594C21.0425 1.71293 19.3295 0 17.2165 0C15.1035 0 13.3906 1.71293 13.3906 3.82594C13.3906 5.93895 15.1035 7.65189 17.2165 7.65189Z" fill="white"/>
<path d="M4.10253 19.9881L16.5713 2.7918C16.7874 2.51888 17.1879 2.4717 17.4468 2.67192L32.6447 15.2854L34.3109 15.0112L18.2458 1.67845C17.4213 1.03697 16.2218 1.18108 15.5561 2.02151L2.3139 20.2827L4.10253 19.9881Z" fill="#FF9E9E"/>
<path d="M35.4593 17.4087L37.9474 32.5084L5.23051 37.9004L2.74237 22.8007L35.4593 17.4087Z" fill="#8AB9FF"/>
<path d="M35.458 17.4073L37.9455 32.5077L5.22858 37.8978L2.74108 22.7974L35.458 17.4073ZM36.5108 14.666C36.3475 14.666 1.2292 20.4617 1.06787 20.4878C0.902632 20.515 0.744368 20.5745 0.602118 20.6628C0.459869 20.7512 0.336422 20.8667 0.238832 21.0028C0.141243 21.1388 0.0714228 21.2928 0.0333617 21.4559C-0.00469946 21.619 -0.0102552 21.7879 0.0170106 21.9532L2.91963 39.5704C2.96871 39.8684 3.12198 40.1393 3.35214 40.3349C3.58229 40.5305 3.8744 40.6381 4.17645 40.6384C4.34033 40.6384 39.4574 34.8434 39.6194 34.8166C39.7846 34.7894 39.9429 34.7298 40.0851 34.6414C40.2274 34.553 40.3508 34.4374 40.4484 34.3013C40.546 34.1652 40.6158 34.0112 40.6539 33.848C40.6919 33.6849 40.6975 33.5159 40.6702 33.3507L37.7676 15.7341C37.7184 15.4361 37.5651 15.1653 37.335 14.9697C37.1048 14.7741 36.8128 14.6665 36.5108 14.666Z" fill="white"/>
<path d="M17.2165 5.10141C17.9209 5.10141 18.4919 4.53043 18.4919 3.8261C18.4919 3.12176 17.9209 2.55078 17.2165 2.55078C16.5122 2.55078 15.9412 3.12176 15.9412 3.8261C15.9412 4.53043 16.5122 5.10141 17.2165 5.10141Z" fill="#CFD3D4"/>
<path d="M5.22859 37.8981L5.29427 37.8872L23.8641 19.3174L2.74109 22.7977L5.22859 37.8981Z" fill="#4992FF"/>
<path d="M5.82545 30.3178L5.82226 30.2974C5.49131 28.2894 6.80489 26.3841 8.98376 26.0251C11.1633 25.6661 12.9946 27.0326 13.3256 29.0406L13.3288 29.061C13.5896 31.1455 12.276 33.0514 10.1673 33.3333C7.97818 33.626 6.15639 32.3258 5.82545 30.3178ZM11.7085 29.3485L11.7053 29.3281C11.5063 28.1172 10.4517 27.2551 9.20057 27.4611C7.94948 27.667 7.24487 28.7989 7.44446 30.0098L7.44765 30.0296C7.64723 31.2405 8.70128 32.1032 9.95236 31.8973C11.2028 31.6913 11.9081 30.5595 11.7085 29.3485Z" fill="#F0F1F1"/>
<path d="M13.3288 29.061L13.3256 29.0406C12.9946 27.0326 11.1633 25.6661 8.98376 26.0251C6.80489 26.3841 5.49131 28.2894 5.82226 30.2974L5.82545 30.3178C6.1379 32.2135 7.78752 33.5354 9.80506 33.376L13.3772 29.8038C13.3857 29.5552 13.3695 29.3064 13.3288 29.061ZM9.95109 31.8973C8.70064 32.1032 7.64596 31.2411 7.44637 30.0296L7.44318 30.0098C7.2436 28.7989 7.94821 27.667 9.19929 27.4611C10.4504 27.2551 11.5051 28.1172 11.704 29.3281L11.7072 29.3485C11.9081 30.5595 11.2028 31.6913 9.95109 31.8973Z" fill="white"/>
<path d="M14.254 26.0794C14.2362 25.9772 14.239 25.8726 14.2621 25.7715C14.2853 25.6705 14.3283 25.575 14.3887 25.4908C14.4492 25.4066 14.5258 25.3352 14.6141 25.2809C14.7024 25.2266 14.8006 25.1904 14.9031 25.1745L17.0118 24.827C18.6971 24.5496 19.8806 25.3805 20.1185 26.8235L20.1217 26.8439C20.3908 28.4782 19.2589 29.5355 17.675 29.7963L16.494 29.9908L16.7249 31.393C16.7963 31.8272 16.51 32.2264 16.0757 32.2978C15.6415 32.3692 15.2423 32.0829 15.1709 31.6487L14.254 26.0794ZM17.4971 28.4055C18.2744 28.2774 18.6519 27.7386 18.5524 27.1334L18.5492 27.113C18.4344 26.4167 17.8886 26.1234 17.1113 26.2509L15.9106 26.4486L16.2664 28.6083L17.4971 28.4055Z" fill="#F0F1F1"/>
<path d="M17.0119 24.8272L14.9031 25.1747C14.4695 25.2461 14.1826 25.646 14.254 26.0796L14.657 28.5243L16.0273 27.154L15.9113 26.4488L16.8945 26.2868L18.3223 24.8591C17.8918 24.7621 17.4465 24.7513 17.0119 24.8272Z" fill="white"/>
<path d="M21.8982 30.4787L20.9908 24.9694C20.9732 24.8673 20.976 24.7626 20.9992 24.6616C21.0224 24.5606 21.0655 24.4652 21.1259 24.381C21.1863 24.2968 21.2629 24.2254 21.3511 24.1711C21.4394 24.1168 21.5376 24.0805 21.64 24.0645L25.5552 23.4199C25.7397 23.3898 25.9287 23.4342 26.0806 23.5432C26.2325 23.6522 26.335 23.817 26.3657 24.0014C26.3803 24.0924 26.3767 24.1853 26.3553 24.2748C26.3338 24.3644 26.2949 24.4489 26.2406 24.5233C26.1864 24.5977 26.118 24.6607 26.0393 24.7086C25.9606 24.7565 25.8732 24.7883 25.7822 24.8023L22.6341 25.3207L22.87 26.7535L25.5641 26.3097C25.9474 26.2466 26.3115 26.508 26.3746 26.8913C26.4377 27.2745 26.175 27.629 25.7918 27.6922L23.0977 28.136L23.3419 29.6192L26.5404 29.0918C26.725 29.0618 26.914 29.1061 27.066 29.2151C27.218 29.3241 27.3207 29.4889 27.3515 29.6734C27.3661 29.7643 27.3626 29.8572 27.3411 29.9468C27.3196 30.0364 27.2807 30.1208 27.2264 30.1953C27.1722 30.2697 27.1038 30.3327 27.0251 30.3806C26.9464 30.4285 26.8591 30.4603 26.768 30.4743L22.8024 31.1272C22.7004 31.1449 22.5958 31.1421 22.4949 31.1189C22.394 31.0958 22.2986 31.0528 22.2145 30.9924C22.1303 30.932 22.059 30.8555 22.0047 30.7674C21.9504 30.6792 21.9142 30.5811 21.8982 30.4787ZM27.7417 23.8165C27.7241 23.7144 27.7269 23.6098 27.75 23.5089C27.7732 23.4079 27.8162 23.3125 27.8765 23.2283C27.9369 23.1441 28.0134 23.0727 28.1016 23.0184C28.1898 22.964 28.2879 22.9277 28.3902 22.9117L28.5516 22.8849C28.9252 22.823 29.1771 22.9684 29.4341 23.2056L33.0789 26.6471L32.4789 23.0048C32.4454 22.8013 32.4941 22.5929 32.6143 22.4254C32.7345 22.2578 32.9163 22.1449 33.1197 22.1114C33.3232 22.0779 33.5316 22.1266 33.6991 22.2468C33.8667 22.367 33.9796 22.5488 34.0131 22.7522L34.939 28.3719C34.9566 28.4741 34.9538 28.5787 34.9306 28.6797C34.9074 28.7807 34.8644 28.8761 34.8039 28.9603C34.7435 29.0445 34.667 29.1159 34.5787 29.1702C34.4904 29.2245 34.3922 29.2608 34.2898 29.2768L34.2395 29.285C33.8658 29.3469 33.6139 29.2015 33.3569 28.9643L29.5775 25.3998L30.2012 29.1837C30.2347 29.3869 30.186 29.5952 30.066 29.7626C30.0065 29.8455 29.9313 29.9159 29.8447 29.9697C29.758 30.0236 29.6616 30.0598 29.561 30.0764C29.3577 30.1099 29.1494 30.0612 28.982 29.9412C28.8146 29.8211 28.7017 29.6394 28.6682 29.4362L27.7417 23.8165Z" fill="#F0F1F1"/>
</svg>
