<svg width="32" height="37" viewBox="0 0 32 37" fill="none" xmlns="http://www.w3.org/2000/svg">
<path d="M31.1973 33.6627L25.1197 22.1584V10.1158H16.213V12.9621C17.6794 14.1759 18.6095 15.9552 18.6095 17.9435C18.6095 20.2201 17.395 22.2276 15.5469 23.4192L10.136 33.6621C9.71293 34.4629 10.3281 35.4052 11.2742 35.4052H30.0598C31.0052 35.4052 31.6204 34.4629 31.1973 33.6627Z" fill="white"/>
<path d="M18.9326 1.1141C20.6812 2.13039 20.9997 4.68536 20.9997 4.68536C20.9997 4.68536 18.483 5.5924 16.7338 4.5761C14.9846 3.55981 14.6667 1.00484 14.6667 1.00484C14.6667 1.00484 17.1841 0.0977994 18.9326 1.1141ZM23.0674 2.37849C21.3189 3.39479 21.0003 5.94975 21.0003 5.94975C21.0003 5.94975 23.5171 6.85679 25.2663 5.8405C27.0148 4.8242 27.3334 2.26924 27.3334 2.26924C27.3334 2.26924 24.816 1.36219 23.0674 2.37849Z" fill="#8AB9FF"/>
<path d="M31.1973 33.661L26.1313 24.0619C21.954 23.7533 18.9779 25.4945 14.6994 25.0142L10.136 33.661C9.71293 34.462 10.3281 35.4052 11.2742 35.4052H30.0598C31.0052 35.4052 31.6204 34.462 31.1973 33.661Z" fill="#FF9E9E"/>
<path d="M15.4582 25.0736C15.2134 25.0597 14.9649 25.0404 14.7112 25.0115L14.6667 25.0953C14.935 25.0959 15.1988 25.088 15.4582 25.0736ZM31.1974 33.6607L26.135 24.0596C25.5075 24.0132 24.9099 24.0174 24.3288 24.0488C24.4089 24.053 24.4858 24.0536 24.5666 24.0596L29.6291 33.6607C30.0518 34.4618 29.4371 35.4052 28.4917 35.4052H30.0601C31.0055 35.4052 31.6202 34.4618 31.1974 33.6607Z" fill="#D46B00"/>
<path d="M26.6666 32.8763C27.403 32.8763 28 32.3102 28 31.6118C28 30.9135 27.403 30.3474 26.6666 30.3474C25.9303 30.3474 25.3333 30.9135 25.3333 31.6118C25.3333 32.3102 25.9303 32.8763 26.6666 32.8763Z" fill="#8AB9FF"/>
<path d="M26.6667 33.5085C25.564 33.5085 24.6667 32.6575 24.6667 31.6118C24.6667 30.5661 25.564 29.7151 26.6667 29.7151C27.7694 29.7151 28.6667 30.5661 28.6667 31.6118C28.6667 32.6575 27.77 33.5085 26.6667 33.5085ZM26.6667 30.9796C26.2994 30.9796 26 31.2628 26 31.6118C26 31.9608 26.2994 32.244 26.6667 32.244C27.034 32.244 27.3334 31.9608 27.3334 31.6118C27.3334 31.2628 27.0347 30.9796 26.6667 30.9796Z" fill="black"/>
<path d="M21.3333 29.7151C22.0697 29.7151 22.6667 29.149 22.6667 28.4506C22.6667 27.7523 22.0697 27.1862 21.3333 27.1862C20.597 27.1862 20 27.7523 20 28.4506C20 29.149 20.597 29.7151 21.3333 29.7151Z" fill="#8AB9FF"/>
<path d="M21.3333 29.7151C20.2306 29.7151 19.3333 29.0059 19.3333 28.1345C19.3333 27.2631 20.2306 26.5539 21.3333 26.5539C22.436 26.5539 23.3333 27.2631 23.3333 28.1345C23.3333 29.0059 22.436 29.7151 21.3333 29.7151ZM21.3333 27.6077C20.966 27.6077 20.6666 27.8437 20.6666 28.1345C20.6666 28.4253 20.966 28.6614 21.3333 28.6614C21.7006 28.6614 22 28.4253 22 28.1345C22 27.8437 21.7006 27.6077 21.3333 27.6077Z" fill="black"/>
<path d="M17.3333 32.244C18.0697 32.244 18.6667 31.6779 18.6667 30.9796C18.6667 30.2812 18.0697 29.7151 17.3333 29.7151C16.597 29.7151 16 30.2812 16 30.9796C16 31.6779 16.597 32.244 17.3333 32.244Z" fill="#8AB9FF"/>
<path d="M17.3333 32.8763C16.2306 32.8763 15.3333 32.1671 15.3333 31.2957C15.3333 30.4243 16.2306 29.7151 17.3333 29.7151C18.436 29.7151 19.3333 30.4243 19.3333 31.2957C19.3333 32.1671 18.436 32.8763 17.3333 32.8763ZM17.3333 30.7688C16.966 30.7688 16.6666 31.0049 16.6666 31.2957C16.6666 31.5865 16.966 31.8226 17.3333 31.8226C17.7006 31.8226 18 31.5865 18 31.2957C18 31.0049 17.7006 30.7688 17.3333 30.7688Z" fill="black"/>
<path d="M11.6667 24.6572C15.5327 24.6572 18.6667 21.6851 18.6667 18.0187C18.6667 14.3524 15.5327 11.3802 11.6667 11.3802C7.80069 11.3802 4.66669 14.3524 4.66669 18.0187C4.66669 21.6851 7.80069 24.6572 11.6667 24.6572Z" fill="#8AB9FF"/>
<path d="M11.6666 22.1283C14.0599 22.1283 16 20.2884 16 18.0187C16 15.7491 14.0599 13.9092 11.6666 13.9092C9.27341 13.9092 7.33331 15.7491 7.33331 18.0187C7.33331 20.2884 9.27341 22.1283 11.6666 22.1283Z" fill="white"/>
<path d="M14.0358 14.5414C14.4892 15.1935 14.7545 15.9736 14.7545 16.8129C14.7545 19.0961 12.8027 20.9471 10.3951 20.9471C9.5102 20.9471 8.68753 20.6955 8 20.2655C8.7797 21.3871 10.118 22.1283 11.6407 22.1283C14.0483 22.1283 16 20.2773 16 17.9941C16 16.5501 15.2184 15.2809 14.0358 14.5414Z" fill="#8AB9FF" fill-opacity="0.42"/>
<path d="M11.6667 22.7605C8.90981 22.7605 6.66669 20.6332 6.66669 18.0187C6.66669 15.4042 8.90981 13.277 11.6667 13.277C14.4236 13.277 16.6667 15.4042 16.6667 18.0187C16.6667 20.6332 14.4236 22.7605 11.6667 22.7605ZM11.6667 14.4624C9.59856 14.4624 7.91669 16.0574 7.91669 18.0187C7.91669 19.9801 9.59856 21.5751 11.6667 21.5751C13.7348 21.5751 15.4167 19.9801 15.4167 18.0187C15.4167 16.0574 13.7348 14.4624 11.6667 14.4624Z" fill="black"/>
<path d="M7.88752 26.5539L5.33331 25.4111L6.7791 23.3927L9.33331 24.5356L7.88752 26.5539Z" fill="#CCCCCC"/>
<path d="M3.73406 34.1408L0 32.289L4.93261 24.6572L8.66667 26.5083L3.73406 34.1408Z" fill="#3E444C"/>
<path d="M31.7997 33.4295L26.8033 23.863L25.8721 22.0803V10.8104H26.4996V9.60913H25.2447H21.4799V7.01855C21.911 7.11646 22.4644 7.20655 23.0674 7.20655C23.8366 7.20655 24.6787 7.0612 25.4197 6.6023C27.3799 5.3884 27.7363 2.51612 27.7507 2.39479C27.7821 2.1263 27.6227 1.87103 27.3604 1.77072C27.2462 1.72688 24.5419 0.711788 22.5604 1.9389C21.9467 2.31911 21.49 2.86209 21.1518 3.4321C20.8387 2.48609 20.2438 1.2848 19.1451 0.604272C17.1618 -0.623444 14.4587 0.392245 14.3445 0.436693C14.0828 0.537 13.9235 0.792875 13.9548 1.06076C13.9686 1.18209 14.3257 4.05377 16.2858 5.26767C17.0269 5.72657 17.8689 5.87192 18.6388 5.87192C19.2411 5.87192 19.7946 5.78242 20.2256 5.68452V9.60913H16.4609H15.206V10.8104H15.8334V11.8712C14.6908 11.2026 13.3543 10.8104 11.9212 10.8104C7.76936 10.8104 4.39176 14.0437 4.39176 18.0181C4.39176 19.9462 5.19114 21.6953 6.48307 22.9897L5.55757 24.4673L5.50612 24.4408C5.21184 24.2895 4.84415 24.3868 4.67223 24.6613L0.0892848 31.9795C0.000813398 32.1207 -0.0230299 32.2907 0.0227744 32.4486C0.0685788 32.6072 0.180266 32.7405 0.332111 32.818L3.80195 34.5935C3.89544 34.6416 3.99709 34.6644 4.09685 34.6644C4.31081 34.6644 4.5185 34.5599 4.63584 34.3731L9.21878 27.0548C9.30725 26.9137 9.3311 26.7437 9.28529 26.5857C9.23949 26.4284 9.12906 26.2962 8.97909 26.2181L9.78788 24.9262C10.4649 25.119 11.1796 25.2259 11.9212 25.2259C12.7921 25.2259 13.6254 25.0763 14.4041 24.815L9.90459 33.4301C9.61094 33.9929 9.64169 34.6482 9.98679 35.1834C10.3319 35.7185 10.9311 36.0375 11.5887 36.0375H30.1162C30.7732 36.0375 31.3718 35.7179 31.7175 35.1828C32.0626 34.6482 32.0933 33.9923 31.7997 33.4295ZM24.7377 5.59262C24.0299 6.03109 23.1402 6.05091 22.4142 5.96022L26.1413 3.65254C25.8658 4.38172 25.4222 5.16917 24.7377 5.59262ZM23.2412 2.94739C23.9483 2.50891 24.8381 2.48909 25.564 2.57919L21.8363 4.88686C22.098 4.18291 22.5303 3.38766 23.2412 2.94739ZM18.4631 1.61275C19.174 2.05303 19.6063 2.84828 19.868 3.55344L16.144 1.24756C16.8725 1.15807 17.7622 1.17789 18.4631 1.61275ZM16.9666 4.25799C16.2557 3.81772 15.8234 3.02247 15.5617 2.31791L19.2838 4.62258C18.5566 4.71148 17.6675 4.69166 16.9666 4.25799ZM24.6166 10.8104V12.6123H23.3617V13.8136H24.6166V15.0149H23.3617V16.2162H24.6166V17.4175H23.3617V18.6188H24.6166V19.8201H23.3617V21.0214H24.6166V22.2227C24.6166 22.3158 24.6392 22.4083 24.6825 22.4911L25.2089 23.4996C23.8774 23.5038 22.6558 23.6864 21.4787 23.9021V10.8104H24.6166ZM17.0871 12.7829V10.8104H20.2244V24.1363C18.8295 24.3964 17.4673 24.6138 15.9451 24.5514L16.2927 23.8858C16.358 23.8414 16.4145 23.7891 16.4778 23.7429C16.6039 23.651 16.7276 23.5567 16.8474 23.457C16.9415 23.3789 17.0338 23.299 17.1235 23.2167C17.2339 23.1152 17.3393 23.0095 17.4435 22.902C17.5244 22.8179 17.6073 22.7362 17.6838 22.6485C17.8156 22.4984 17.9385 22.341 18.0578 22.1806C18.1161 22.1019 18.1738 22.0238 18.2284 21.9434C18.3527 21.7614 18.4694 21.574 18.5767 21.3812C18.6193 21.3031 18.6564 21.2232 18.6965 21.1439C18.7775 20.9835 18.854 20.8214 18.923 20.655C18.9582 20.5697 18.9902 20.4832 19.0222 20.3967C19.0837 20.2285 19.1382 20.0579 19.1872 19.8843C19.2117 19.7979 19.2361 19.7126 19.2568 19.6255C19.3014 19.4399 19.3353 19.2513 19.3641 19.0609C19.3761 18.9834 19.3917 18.9077 19.4011 18.8296C19.4313 18.5629 19.4507 18.2926 19.4507 18.0181C19.4507 16.7484 19.1031 15.5555 18.4982 14.5182C18.4945 14.5116 18.4901 14.5056 18.4863 14.4996C18.3677 14.2978 18.2397 14.1025 18.1023 13.9133C18.0816 13.8845 18.0578 13.8575 18.0364 13.8287C17.9128 13.6635 17.7836 13.5025 17.6462 13.3481C17.6104 13.3085 17.5721 13.2713 17.5357 13.2322C17.4052 13.0917 17.2709 12.9553 17.1291 12.825C17.1141 12.8112 17.1021 12.7961 17.0871 12.7829ZM3.86595 33.2649L1.5042 32.0564L5.44149 25.7701L5.49294 25.7965L7.80324 26.9786L3.86595 33.2649ZM7.871 25.6511L6.66566 25.0343L7.32888 23.9753L8.5336 24.5916L7.871 25.6511ZM5.64667 18.0181C5.64667 14.7062 8.46144 12.0117 11.9212 12.0117C13.5231 12.0117 14.9813 12.5937 16.0913 13.5427C16.2312 13.6623 16.3649 13.7866 16.4916 13.9157C16.5205 13.9452 16.5487 13.9758 16.5776 14.0064C16.6949 14.1308 16.8066 14.2599 16.912 14.3927C16.9396 14.4275 16.9672 14.4623 16.9942 14.4984C17.0965 14.6329 17.1919 14.7717 17.2816 14.9128C17.3042 14.9483 17.3274 14.9831 17.3487 15.0191C17.4385 15.1669 17.52 15.3189 17.5953 15.4726C17.6116 15.5057 17.6292 15.5375 17.6449 15.5705C17.7202 15.7315 17.7867 15.8961 17.8469 16.0624C17.8576 16.0925 17.8708 16.1213 17.8814 16.1519C17.9398 16.3225 17.9881 16.4961 18.0308 16.6709C18.0377 16.7003 18.0477 16.7286 18.0546 16.7586C18.0942 16.9346 18.123 17.1136 18.1456 17.2938C18.1494 17.3238 18.1569 17.3532 18.16 17.3839C18.1833 17.5935 18.1958 17.8049 18.1958 18.0181C18.1958 18.2494 18.1789 18.4782 18.1519 18.7047C18.1444 18.7696 18.1312 18.8326 18.1211 18.8969C18.096 19.0591 18.0659 19.2206 18.027 19.3792C18.0094 19.4507 17.99 19.521 17.9699 19.5918C17.9266 19.7432 17.8771 19.8928 17.8218 20.0405C17.7967 20.1072 17.7729 20.1745 17.7453 20.2405C17.6788 20.4003 17.6035 20.5559 17.5225 20.709C17.4981 20.7559 17.4767 20.8051 17.451 20.8514C17.345 21.0406 17.2276 21.2244 17.1003 21.4022C17.0545 21.4658 17.0036 21.5259 16.9553 21.5878C16.8675 21.7007 16.7778 21.8124 16.6818 21.9199C16.6171 21.992 16.55 22.0611 16.4822 22.1302C16.3894 22.2245 16.2927 22.3158 16.193 22.4046C16.1221 22.4677 16.0524 22.5314 15.9784 22.5914C15.8479 22.6978 15.7111 22.7975 15.5705 22.8942C14.5409 23.6023 13.2828 24.0246 11.9212 24.0246C8.46144 24.0246 5.64667 21.3301 5.64667 18.0181ZM30.1162 34.8362H11.5887C11.2731 34.8362 11.1099 34.6368 11.0547 34.5509C10.9995 34.465 10.8859 34.2373 11.0277 33.9664L15.3352 25.7202C17.4366 25.889 19.2355 25.5496 20.9786 25.2193C22.5811 24.9159 24.0995 24.6246 25.8426 24.7093L30.6778 33.9664C30.7129 34.0343 30.7324 34.0992 30.7412 34.1599C30.7663 34.3419 30.6922 34.4866 30.6508 34.5515C30.5944 34.6368 30.4318 34.8362 30.1162 34.8362Z" fill="black"/>
<path d="M18 27.1862H16.6667V28.4506H18V27.1862Z" fill="black"/>
<path d="M25.3334 27.1862H24.6667V28.4506H25.3334V27.1862Z" fill="black"/>
<path d="M22.6666 31.6118H21.3333V32.8763H22.6666V31.6118Z" fill="black"/>
</svg>
