<svg width="41" height="40" viewBox="0 0 41 40" fill="none" xmlns="http://www.w3.org/2000/svg">
<path d="M8.4484 16.7646C7.8603 17.1311 7.18659 17.3278 6.49847 17.334V33.3334H20.7979V17.0552C20.5769 16.9685 20.3507 16.8872 20.1479 16.7632C19.56 17.1301 18.8863 17.3274 18.198 17.334C17.5098 17.3274 16.8361 17.1301 16.2481 16.7632C15.6601 17.1301 14.9864 17.3274 14.2982 17.334C13.6099 17.3274 12.9362 17.1301 12.3482 16.7632C11.7603 17.1301 11.0866 17.3274 10.3983 17.334C9.71009 17.3274 9.03637 17.1301 8.4484 16.7632V16.7646Z" fill="#8AB9FF"/>
<path d="M3.89992 13.3076V35.2907H5.19987V13.3076H3.89992ZM35.0987 13.3076V36.0001H23.0287V37.3334H35.7487C35.9211 37.3334 36.0864 37.2631 36.2083 37.1381C36.3302 37.0131 36.3987 36.8436 36.3987 36.6668V13.3076H35.0987ZM5.10497 0.00130204C4.97351 0.00163738 4.84524 0.0428146 4.73709 0.119462C4.62894 0.196109 4.54599 0.304653 4.4992 0.430649L0.0429688 12.4302L1.25582 12.9062L5.55475 1.33329H34.7425L39.0414 12.9062L40.2543 12.4302L35.7994 0.430649L35.1897 1.33329V0L5.10497 0.00130204Z" fill="black"/>
<path d="M0.650036 34.6655C0.477652 34.6655 0.312328 34.7358 0.190434 34.8608C0.0685403 34.9859 6.10352e-05 35.1554 6.10352e-05 35.3322V39.332C0.000162003 39.4726 0.0435901 39.6096 0.124138 39.7233C0.204686 39.837 0.318231 39.9219 0.448543 39.9655C0.469879 39.9728 0.491575 39.979 0.513541 39.984C0.554962 39.9936 0.597196 39.999 0.639636 40.0001C0.643103 40.0002 0.646569 40.0002 0.650036 40.0001H22.7492C22.7928 40.0002 22.8364 39.9957 22.8792 39.9868C23.026 39.9561 23.1579 39.8742 23.2527 39.7552C23.3474 39.6361 23.3992 39.4872 23.3992 39.3335V35.3336L23.3888 35.3468C23.3901 35.2593 23.3747 35.1724 23.3433 35.091C23.3119 35.0095 23.2651 34.9353 23.2058 34.8724C23.1464 34.8095 23.0755 34.7592 22.9971 34.7244C22.9188 34.6897 22.8345 34.671 22.7492 34.6696H0.650036V34.6655ZM1.30001 35.9988H22.0992V38.6654H1.30001V35.9988Z" fill="black"/>
<path d="M22.757 35.9987C22.6715 35.9999 22.5871 36.0185 22.5086 36.0532C22.4301 36.0879 22.3591 36.1381 22.2995 36.201C22.24 36.2639 22.1932 36.3382 22.1617 36.4197C22.1302 36.5013 22.1147 36.5884 22.1161 36.6761L22.107 36.6627V39.3293C22.107 39.5061 22.1755 39.6756 22.2974 39.8006C22.4193 39.9257 22.5846 39.996 22.757 39.996H36.37V38.6627H23.4069V37.3294H36.37V35.9961H22.757V35.9987Z" fill="black"/>
<path d="M35.7487 34.6651C35.5763 34.6651 35.411 34.7354 35.2891 34.8604C35.1672 34.9854 35.0987 35.1549 35.0987 35.3317V39.3316C35.0988 39.4722 35.1422 39.6091 35.2228 39.7229C35.3033 39.8366 35.4169 39.9215 35.5472 39.965C35.5685 39.9724 35.5902 39.9785 35.6122 39.9836C35.6536 39.9931 35.6958 39.9986 35.7383 39.9997C35.7417 39.9997 35.7452 39.9997 35.7487 39.9997H39.6485C39.6922 39.9998 39.7357 39.9953 39.7785 39.9864C39.9253 39.9556 40.0573 39.8738 40.152 39.7548C40.2468 39.6357 40.2985 39.4867 40.2985 39.3331V35.3332L40.2881 35.3464C40.2895 35.2588 40.274 35.172 40.2426 35.0905C40.2112 35.0091 40.1645 34.9349 40.1051 34.872C40.0457 34.8091 39.9748 34.7588 39.8965 34.724C39.8181 34.6892 39.7339 34.6706 39.6485 34.6692H35.7487V34.6651ZM36.3986 35.9984H38.9985V38.665H36.3986V35.9984ZM4.52648 12.6392C4.35432 12.642 4.19028 12.7147 4.07037 12.8415C3.95045 12.9682 3.88447 13.1387 3.88691 13.3152V35.2478C3.88691 35.4246 3.95538 35.5942 4.07728 35.7193C4.19917 35.8443 4.3645 35.9144 4.53688 35.9144C4.70926 35.9144 4.87459 35.8443 4.99648 35.7193C5.11838 35.5942 5.18686 35.4246 5.18686 35.2478V13.3152C5.18791 13.2261 5.17153 13.1377 5.13868 13.0552C5.10584 12.9726 5.05719 12.8977 4.99562 12.8348C4.93405 12.7719 4.86081 12.7223 4.78023 12.689C4.69965 12.6556 4.61337 12.6392 4.52648 12.6406V12.6392ZM22.7518 14.5698C22.6663 14.571 22.5819 14.5896 22.5034 14.6243C22.4249 14.659 22.3539 14.7093 22.2943 14.7722C22.2348 14.8351 22.188 14.9095 22.1565 14.991C22.125 15.0725 22.1095 15.1595 22.1109 15.2471V36.665C22.1109 36.8418 22.1794 37.0115 22.3013 37.1365C22.4232 37.2615 22.5885 37.3317 22.7609 37.3317C22.9333 37.3317 23.0986 37.2615 23.2205 37.1365C23.3424 37.0115 23.4108 36.8418 23.4108 36.665V15.2471C23.4122 15.1579 23.3962 15.0693 23.3636 14.9866C23.3309 14.9038 23.2825 14.8287 23.221 14.7656C23.1595 14.7024 23.0863 14.6525 23.0057 14.6189C22.9251 14.5853 22.8388 14.5685 22.7518 14.5698ZM25.3491 22.6655C25.1767 22.6655 25.0114 22.7358 24.8895 22.8608C24.7676 22.9858 24.6991 23.1553 24.6991 23.3322V36.665C24.6991 36.8418 24.7676 37.0115 24.8895 37.1365C25.0114 37.2615 25.1767 37.3317 25.3491 37.3317H33.1488C33.3211 37.3317 33.4865 37.2615 33.6084 37.1365C33.7303 37.0115 33.7987 36.8418 33.7987 36.665V22.6336L33.1488 22.6603L25.3491 22.6655ZM25.999 23.9988H32.4988V35.9984H25.999V23.9988Z" fill="black"/>
<path d="M0.639623 12.005C0.467689 12.0078 0.303845 12.0803 0.183972 12.2068C0.0640978 12.3332 -0.00203743 12.5032 4.78572e-05 12.6796V13.3329C4.78572e-05 14.7995 1.17 15.9995 2.59995 15.9995C4.02859 15.9995 5.19985 14.7995 5.19985 13.3329C5.19985 13.1561 5.13137 12.9866 5.00947 12.8615C4.88758 12.7365 4.72225 12.6662 4.54987 12.6662C4.37749 12.6662 4.21216 12.7365 4.09027 12.8615C3.96838 12.9866 3.8999 13.1561 3.8999 13.3329C3.8999 14.0835 3.33052 14.6662 2.59995 14.6662C1.86808 14.6662 1.3 14.0835 1.3 13.3329V12.6796C1.30105 12.5905 1.28467 12.502 1.25182 12.4195C1.21898 12.337 1.17033 12.2622 1.10876 12.1993C1.0472 12.1364 0.973957 12.0867 0.893376 12.0533C0.812796 12.0199 0.72651 12.0035 0.639623 12.005Z" fill="black"/>
<path d="M4.53946 12.6583C4.36753 12.6611 4.20369 12.7337 4.08381 12.8601C3.96394 12.9866 3.8978 13.1566 3.89989 13.3329C3.89989 14.7995 5.06984 15.9995 6.49979 15.9995C7.92843 15.9995 9.09969 14.7995 9.09969 13.3329C9.09969 13.1561 9.03121 12.9866 8.90931 12.8616C8.78742 12.7366 8.6221 12.6663 8.44971 12.6663C8.27733 12.6663 8.112 12.7366 7.99011 12.8616C7.86822 12.9866 7.79974 13.1561 7.79974 13.3329C7.79974 14.0835 7.23036 14.6662 6.49979 14.6662C5.76792 14.6662 5.19984 14.0835 5.19984 13.3329C5.20089 13.2438 5.18451 13.1553 5.15167 13.0728C5.11882 12.9903 5.07017 12.9155 5.00861 12.8526C4.94704 12.7897 4.8738 12.74 4.79322 12.7066C4.71264 12.6733 4.62635 12.6569 4.53946 12.6583Z" fill="black"/>
<path d="M8.43931 12.6583C8.26737 12.6611 8.10353 12.7337 7.98365 12.8601C7.86378 12.9866 7.79765 13.1566 7.79973 13.3329C7.79973 14.7995 8.96968 15.9995 10.3996 15.9995C11.8283 15.9995 12.9995 14.7995 12.9995 13.3329C12.9995 13.1561 12.931 12.9866 12.8092 12.8616C12.6873 12.7366 12.5219 12.6663 12.3496 12.6663C12.1772 12.6663 12.0118 12.7366 11.89 12.8616C11.7681 12.9866 11.6996 13.1561 11.6996 13.3329C11.6996 14.0835 11.1302 14.6662 10.3996 14.6662C9.66776 14.6662 9.09968 14.0835 9.09968 13.3329C9.10073 13.2438 9.08435 13.1553 9.05151 13.0728C9.01866 12.9903 8.97002 12.9155 8.90845 12.8526C8.84688 12.7897 8.77364 12.74 8.69306 12.7066C8.61248 12.6733 8.52619 12.6569 8.43931 12.6583Z" fill="black"/>
<path d="M12.3392 12.6583C12.1673 12.6611 12.0034 12.7337 11.8836 12.8601C11.7637 12.9866 11.6975 13.1566 11.6996 13.3329C11.6996 14.7995 12.8696 15.9995 14.2995 15.9995C15.7282 15.9995 16.8994 14.7995 16.8994 13.3329C16.8994 13.1561 16.831 12.9866 16.7091 12.8616C16.5872 12.7366 16.4218 12.6663 16.2495 12.6663C16.0771 12.6663 15.9117 12.7366 15.7899 12.8616C15.668 12.9866 15.5995 13.1561 15.5995 13.3329C15.5995 14.0835 15.0301 14.6662 14.2995 14.6662C13.5677 14.6662 12.9996 14.0835 12.9996 13.3329C13.0006 13.2438 12.9843 13.1553 12.9514 13.0728C12.9186 12.9903 12.8699 12.9155 12.8083 12.8526C12.7468 12.7897 12.6735 12.74 12.593 12.7066C12.5124 12.6733 12.4261 12.6569 12.3392 12.6583Z" fill="black"/>
<path d="M16.239 12.6583C16.0671 12.6611 15.9032 12.7337 15.7833 12.8601C15.6635 12.9866 15.5973 13.1566 15.5994 13.3329C15.5994 14.7995 16.7694 15.9995 18.1993 15.9995C19.628 15.9995 20.7992 14.7995 20.7992 13.3329C20.7992 13.1561 20.7307 12.9866 20.6088 12.8616C20.4869 12.7366 20.3216 12.6663 20.1492 12.6663C19.9769 12.6663 19.8115 12.7366 19.6896 12.8616C19.5677 12.9866 19.4993 13.1561 19.4993 13.3329C19.4993 14.0835 18.9299 14.6662 18.1993 14.6662C17.4674 14.6662 16.8994 14.0835 16.8994 13.3329C16.9004 13.2438 16.884 13.1553 16.8512 13.0728C16.8183 12.9903 16.7697 12.9155 16.7081 12.8526C16.6466 12.7897 16.5733 12.74 16.4927 12.7066C16.4122 12.6733 16.3259 12.6569 16.239 12.6583Z" fill="black"/>
<path d="M20.1388 12.6583C19.9669 12.6611 19.8031 12.7337 19.6832 12.8601C19.5633 12.9866 19.4972 13.1566 19.4993 13.3329C19.4993 14.7995 20.6692 15.9995 22.0992 15.9995C23.5278 15.9995 24.6991 14.7995 24.6991 13.3329C24.6991 13.1561 24.6306 12.9866 24.5087 12.8616C24.3868 12.7366 24.2215 12.6663 24.0491 12.6663C23.8767 12.6663 23.7114 12.7366 23.5895 12.8616C23.4676 12.9866 23.3991 13.1561 23.3991 13.3329C23.3991 14.0835 22.8297 14.6662 22.0992 14.6662C21.3673 14.6662 20.7992 14.0835 20.7992 13.3329C20.8003 13.2438 20.7839 13.1553 20.751 13.0728C20.7182 12.9903 20.6695 12.9155 20.608 12.8526C20.5464 12.7897 20.4732 12.74 20.3926 12.7066C20.312 12.6733 20.2257 12.6569 20.1388 12.6583Z" fill="black"/>
<path d="M24.0387 12.6583C23.8667 12.6611 23.7029 12.7337 23.583 12.8601C23.4631 12.9866 23.397 13.1566 23.3991 13.3329C23.3991 14.7995 24.5691 15.9995 25.999 15.9995C27.4276 15.9995 28.5989 14.7995 28.5989 13.3329C28.5989 13.1561 28.5304 12.9866 28.4085 12.8616C28.2866 12.7366 28.1213 12.6663 27.9489 12.6663C27.7765 12.6663 27.6112 12.7366 27.4893 12.8616C27.3674 12.9866 27.2989 13.1561 27.2989 13.3329C27.2989 14.0835 26.7296 14.6662 25.999 14.6662C25.2671 14.6662 24.699 14.0835 24.699 13.3329C24.7001 13.2438 24.6837 13.1553 24.6509 13.0728C24.618 12.9903 24.5694 12.9155 24.5078 12.8526C24.4462 12.7897 24.373 12.74 24.2924 12.7066C24.2118 12.6733 24.1256 12.6569 24.0387 12.6583Z" fill="black"/>
<path d="M27.9385 12.6583C27.7666 12.6611 27.6027 12.7337 27.4829 12.8601C27.363 12.9866 27.2969 13.1566 27.2989 13.3329C27.2989 14.7995 28.4689 15.9995 29.8988 15.9995C31.3275 15.9995 32.4987 14.7995 32.4987 13.3329C32.4987 13.1561 32.4303 12.9866 32.3084 12.8616C32.1865 12.7366 32.0211 12.6663 31.8488 12.6663C31.6764 12.6663 31.5111 12.7366 31.3892 12.8616C31.2673 12.9866 31.1988 13.1561 31.1988 13.3329C31.1988 14.0835 30.6294 14.6662 29.8988 14.6662C29.167 14.6662 28.5989 14.0835 28.5989 13.3329C28.5999 13.2438 28.5836 13.1553 28.5507 13.0728C28.5179 12.9903 28.4692 12.9155 28.4077 12.8526C28.3461 12.7897 28.2728 12.74 28.1923 12.7066C28.1117 12.6733 28.0254 12.6569 27.9385 12.6583Z" fill="black"/>
<path d="M31.8384 12.6583C31.6665 12.6611 31.5026 12.7337 31.3828 12.8601C31.2629 12.9866 31.1968 13.1566 31.1988 13.3329C31.1988 14.7995 32.3688 15.9995 33.7987 15.9995C35.2274 15.9995 36.3986 14.7995 36.3986 13.3329C36.3986 13.1561 36.3302 12.9866 36.2083 12.8616C36.0864 12.7366 35.921 12.6663 35.7487 12.6663C35.5763 12.6663 35.411 12.7366 35.2891 12.8616C35.1672 12.9866 35.0987 13.1561 35.0987 13.3329C35.0987 14.0835 34.5293 14.6662 33.7987 14.6662C33.0669 14.6662 32.4988 14.0835 32.4988 13.3329C32.4998 13.2438 32.4835 13.1553 32.4506 13.0728C32.4178 12.9903 32.3691 12.9155 32.3076 12.8526C32.246 12.7897 32.1727 12.74 32.0922 12.7066C32.0116 12.6733 31.9253 12.6569 31.8384 12.6583Z" fill="black"/>
<path d="M39.6381 11.9351C39.466 11.938 39.3019 12.0107 39.182 12.1374C39.0621 12.2642 38.9961 12.4345 38.9985 12.6111V13.3324C38.9985 14.083 38.4292 14.6657 37.6986 14.6657C36.9667 14.6657 36.3986 14.083 36.3986 13.3324C36.3986 13.1556 36.3302 12.9861 36.2083 12.8611C36.0864 12.736 35.9211 12.6658 35.7487 12.6658C35.5763 12.6658 35.411 12.736 35.2891 12.8611C35.1672 12.9861 35.0987 13.1556 35.0987 13.3324C35.0987 14.799 36.2686 15.999 37.6986 15.999C39.1272 15.999 40.2985 14.799 40.2985 13.3324V12.6125C40.2999 12.5232 40.2838 12.4345 40.2511 12.3516C40.2184 12.2688 40.1698 12.1935 40.1082 12.1303C40.0466 12.0671 39.9732 12.0173 39.8925 11.9838C39.8117 11.9503 39.7252 11.9337 39.6381 11.9351Z" fill="black"/>
<path fill-rule="evenodd" clip-rule="evenodd" d="M27.299 27.999V30.6656H28.5989V27.999H27.299ZM9.81725 18.3701L7.21735 23.7033L8.3808 24.2993L10.9807 18.9661L9.81725 18.3701ZM12.4171 21.0367L9.16727 27.7031L10.3307 28.2991L13.5806 21.6327L12.4171 21.0367Z" fill="black"/>
<path d="M5.10497 0C4.97336 0.000438358 4.84498 0.0418319 4.73681 0.11873C4.62864 0.195627 4.54578 0.304403 4.4992 0.430649L0.0429688 12.4302L1.25582 12.9062L5.55475 1.33329H34.7425L39.0414 12.9062L40.2543 12.4302L35.7994 0.430649L35.7916 0.443914C35.7467 0.316556 35.6651 0.20628 35.5575 0.127681C35.45 0.0490822 35.3217 0.00594611 35.1897 0.00398749H5.10367L5.10497 0Z" fill="black"/>
<path d="M0.639623 12.005C0.467689 12.0078 0.303845 12.0803 0.183972 12.2068C0.0640978 12.3332 -0.00203743 12.5032 4.78572e-05 12.6796V13.3329C4.78572e-05 14.7995 1.17 15.9995 2.59995 15.9995C4.02859 15.9995 5.19985 14.7995 5.19985 13.3329C5.19985 13.1561 5.13137 12.9866 5.00947 12.8615C4.88758 12.7365 4.72225 12.6662 4.54987 12.6662C4.37749 12.6662 4.21216 12.7365 4.09027 12.8615C3.96838 12.9866 3.8999 13.1561 3.8999 13.3329C3.8999 14.0835 3.33052 14.6662 2.59995 14.6662C1.86808 14.6662 1.3 14.0835 1.3 13.3329V12.6796C1.30105 12.5905 1.28467 12.502 1.25182 12.4195C1.21898 12.337 1.17033 12.2622 1.10876 12.1993C1.0472 12.1364 0.973957 12.0867 0.893376 12.0533C0.812796 12.0199 0.72651 12.0035 0.639623 12.005Z" fill="black"/>
<path d="M4.53946 12.6583C4.36753 12.6611 4.20369 12.7337 4.08381 12.8601C3.96394 12.9866 3.8978 13.1566 3.89989 13.3329C3.89989 14.7995 5.06984 15.9995 6.49979 15.9995C7.92843 15.9995 9.09969 14.7995 9.09969 13.3329C9.09969 13.1561 9.03121 12.9866 8.90931 12.8616C8.78742 12.7366 8.6221 12.6663 8.44971 12.6663C8.27733 12.6663 8.112 12.7366 7.99011 12.8616C7.86822 12.9866 7.79974 13.1561 7.79974 13.3329C7.79974 14.0835 7.23036 14.6662 6.49979 14.6662C5.76792 14.6662 5.19984 14.0835 5.19984 13.3329C5.20089 13.2438 5.18451 13.1553 5.15167 13.0728C5.11882 12.9903 5.07017 12.9155 5.00861 12.8526C4.94704 12.7897 4.8738 12.74 4.79322 12.7066C4.71264 12.6733 4.62635 12.6569 4.53946 12.6583Z" fill="black"/>
<path d="M8.43931 12.6583C8.26737 12.6611 8.10353 12.7337 7.98365 12.8601C7.86378 12.9866 7.79765 13.1566 7.79973 13.3329C7.79973 14.7995 8.96968 15.9995 10.3996 15.9995C11.8283 15.9995 12.9995 14.7995 12.9995 13.3329C12.9995 13.1561 12.931 12.9866 12.8092 12.8616C12.6873 12.7366 12.5219 12.6663 12.3496 12.6663C12.1772 12.6663 12.0118 12.7366 11.89 12.8616C11.7681 12.9866 11.6996 13.1561 11.6996 13.3329C11.6996 14.0835 11.1302 14.6662 10.3996 14.6662C9.66776 14.6662 9.09968 14.0835 9.09968 13.3329C9.10073 13.2438 9.08435 13.1553 9.05151 13.0728C9.01866 12.9903 8.97002 12.9155 8.90845 12.8526C8.84688 12.7897 8.77364 12.74 8.69306 12.7066C8.61248 12.6733 8.52619 12.6569 8.43931 12.6583Z" fill="black"/>
<path d="M12.3392 12.6583C12.1673 12.6611 12.0034 12.7337 11.8836 12.8601C11.7637 12.9866 11.6975 13.1566 11.6996 13.3329C11.6996 14.7995 12.8696 15.9995 14.2995 15.9995C15.7282 15.9995 16.8994 14.7995 16.8994 13.3329C16.8994 13.1561 16.831 12.9866 16.7091 12.8616C16.5872 12.7366 16.4218 12.6663 16.2495 12.6663C16.0771 12.6663 15.9117 12.7366 15.7899 12.8616C15.668 12.9866 15.5995 13.1561 15.5995 13.3329C15.5995 14.0835 15.0301 14.6662 14.2995 14.6662C13.5677 14.6662 12.9996 14.0835 12.9996 13.3329C13.0006 13.2438 12.9843 13.1553 12.9514 13.0728C12.9186 12.9903 12.8699 12.9155 12.8083 12.8526C12.7468 12.7897 12.6735 12.74 12.593 12.7066C12.5124 12.6733 12.4261 12.6569 12.3392 12.6583Z" fill="black"/>
<path d="M16.239 12.6583C16.0671 12.6611 15.9032 12.7337 15.7833 12.8601C15.6635 12.9866 15.5973 13.1566 15.5994 13.3329C15.5994 14.7995 16.7694 15.9995 18.1993 15.9995C19.628 15.9995 20.7992 14.7995 20.7992 13.3329C20.7992 13.1561 20.7307 12.9866 20.6088 12.8616C20.4869 12.7366 20.3216 12.6663 20.1492 12.6663C19.9769 12.6663 19.8115 12.7366 19.6896 12.8616C19.5677 12.9866 19.4993 13.1561 19.4993 13.3329C19.4993 14.0835 18.9299 14.6662 18.1993 14.6662C17.4674 14.6662 16.8994 14.0835 16.8994 13.3329C16.9004 13.2438 16.884 13.1553 16.8512 13.0728C16.8183 12.9903 16.7697 12.9155 16.7081 12.8526C16.6466 12.7897 16.5733 12.74 16.4927 12.7066C16.4122 12.6733 16.3259 12.6569 16.239 12.6583Z" fill="black"/>
<path d="M20.1388 12.6583C19.9669 12.6611 19.8031 12.7337 19.6832 12.8601C19.5633 12.9866 19.4972 13.1566 19.4993 13.3329C19.4993 14.7995 20.6692 15.9995 22.0992 15.9995C23.5278 15.9995 24.6991 14.7995 24.6991 13.3329C24.6991 13.1561 24.6306 12.9866 24.5087 12.8616C24.3868 12.7366 24.2215 12.6663 24.0491 12.6663C23.8767 12.6663 23.7114 12.7366 23.5895 12.8616C23.4676 12.9866 23.3991 13.1561 23.3991 13.3329C23.3991 14.0835 22.8297 14.6662 22.0992 14.6662C21.3673 14.6662 20.7992 14.0835 20.7992 13.3329C20.8003 13.2438 20.7839 13.1553 20.751 13.0728C20.7182 12.9903 20.6695 12.9155 20.608 12.8526C20.5464 12.7897 20.4732 12.74 20.3926 12.7066C20.312 12.6733 20.2257 12.6569 20.1388 12.6583Z" fill="black"/>
<path d="M24.0387 12.6583C23.8667 12.6611 23.7029 12.7337 23.583 12.8601C23.4631 12.9866 23.397 13.1566 23.3991 13.3329C23.3991 14.7995 24.5691 15.9995 25.999 15.9995C27.4276 15.9995 28.5989 14.7995 28.5989 13.3329C28.5989 13.1561 28.5304 12.9866 28.4085 12.8616C28.2866 12.7366 28.1213 12.6663 27.9489 12.6663C27.7765 12.6663 27.6112 12.7366 27.4893 12.8616C27.3674 12.9866 27.2989 13.1561 27.2989 13.3329C27.2989 14.0835 26.7296 14.6662 25.999 14.6662C25.2671 14.6662 24.699 14.0835 24.699 13.3329C24.7001 13.2438 24.6837 13.1553 24.6509 13.0728C24.618 12.9903 24.5694 12.9155 24.5078 12.8526C24.4462 12.7897 24.373 12.74 24.2924 12.7066C24.2118 12.6733 24.1256 12.6569 24.0387 12.6583Z" fill="black"/>
<path d="M27.9385 12.6583C27.7666 12.6611 27.6027 12.7337 27.4829 12.8601C27.363 12.9866 27.2969 13.1566 27.2989 13.3329C27.2989 14.7995 28.4689 15.9995 29.8988 15.9995C31.3275 15.9995 32.4987 14.7995 32.4987 13.3329C32.4987 13.1561 32.4303 12.9866 32.3084 12.8616C32.1865 12.7366 32.0211 12.6663 31.8488 12.6663C31.6764 12.6663 31.5111 12.7366 31.3892 12.8616C31.2673 12.9866 31.1988 13.1561 31.1988 13.3329C31.1988 14.0835 30.6294 14.6662 29.8988 14.6662C29.167 14.6662 28.5989 14.0835 28.5989 13.3329C28.5999 13.2438 28.5836 13.1553 28.5507 13.0728C28.5179 12.9903 28.4692 12.9155 28.4077 12.8526C28.3461 12.7897 28.2728 12.74 28.1923 12.7066C28.1117 12.6733 28.0254 12.6569 27.9385 12.6583Z" fill="black"/>
<path d="M31.8384 12.6583C31.6665 12.6611 31.5026 12.7337 31.3828 12.8601C31.2629 12.9866 31.1968 13.1566 31.1988 13.3329C31.1988 14.7995 32.3688 15.9995 33.7987 15.9995C35.2274 15.9995 36.3986 14.7995 36.3986 13.3329C36.3986 13.1561 36.3302 12.9866 36.2083 12.8616C36.0864 12.7366 35.921 12.6663 35.7487 12.6663C35.5763 12.6663 35.411 12.7366 35.2891 12.8616C35.1672 12.9866 35.0987 13.1561 35.0987 13.3329C35.0987 14.0835 34.5293 14.6662 33.7987 14.6662C33.0669 14.6662 32.4988 14.0835 32.4988 13.3329C32.4998 13.2438 32.4835 13.1553 32.4506 13.0728C32.4178 12.9903 32.3691 12.9155 32.3076 12.8526C32.246 12.7897 32.1727 12.74 32.0922 12.7066C32.0116 12.6733 31.9253 12.6569 31.8384 12.6583Z" fill="black"/>
<path d="M39.6381 11.9351C39.466 11.938 39.3019 12.0107 39.182 12.1374C39.0621 12.2642 38.9961 12.4345 38.9985 12.6111V13.3324C38.9985 14.083 38.4292 14.6657 37.6986 14.6657C36.9667 14.6657 36.3986 14.083 36.3986 13.3324C36.3986 13.1556 36.3302 12.9861 36.2083 12.8611C36.0864 12.736 35.9211 12.6658 35.7487 12.6658C35.5763 12.6658 35.411 12.736 35.2891 12.8611C35.1672 12.9861 35.0987 13.1556 35.0987 13.3324C35.0987 14.799 36.2686 15.999 37.6986 15.999C39.1272 15.999 40.2985 14.799 40.2985 13.3324V12.6125C40.2999 12.5232 40.2838 12.4345 40.2511 12.3516C40.2184 12.2688 40.1698 12.1935 40.1082 12.1303C40.0466 12.0671 39.9732 12.0173 39.8925 11.9838C39.8117 11.9503 39.7252 11.9337 39.6381 11.9351Z" fill="black"/>
<path d="M6.45038 2.66797L2.84952 12.3609C3.0182 12.0504 3.26455 11.7915 3.56318 11.6111C3.86182 11.4307 4.20195 11.3352 4.54856 11.3344C5.06571 11.3344 5.56168 11.5451 5.92736 11.9202C6.29304 12.2952 6.49848 12.8039 6.49848 13.3343C6.49848 12.8039 6.70392 12.2952 7.0696 11.9202C7.43528 11.5451 7.93125 11.3344 8.4484 11.3344C8.96556 11.3344 9.46153 11.5451 9.82721 11.9202C10.1929 12.2952 10.3983 12.8039 10.3983 13.3343C10.3983 12.8039 10.6038 12.2952 10.9694 11.9202C11.3351 11.5451 11.8311 11.3344 12.3483 11.3344C12.8654 11.3344 13.3614 11.5451 13.7271 11.9202C14.0927 12.2952 14.2982 12.8039 14.2982 13.3343C14.2982 12.8039 14.5036 12.2952 14.8693 11.9202C15.235 11.5451 15.7309 11.3344 16.2481 11.3344C16.7653 11.3344 17.2612 11.5451 17.6269 11.9202C17.9926 12.2952 18.198 12.8039 18.198 13.3343C18.198 12.8039 18.4035 12.2952 18.7691 11.9202C19.1348 11.5451 19.6308 11.3344 20.1479 11.3344C20.6651 11.3344 21.1611 11.5451 21.5268 11.9202C21.8924 12.2952 22.0979 12.8039 22.0979 13.3343C22.0979 12.8039 22.3033 12.2952 22.669 11.9202C23.0347 11.5451 23.5306 11.3344 24.0478 11.3344C24.5649 11.3344 25.0609 11.5451 25.4266 11.9202C25.7923 12.2952 25.9977 12.8039 25.9977 13.3343C25.9977 12.8039 26.2032 12.2952 26.5688 11.9202C26.9345 11.5451 27.4305 11.3344 27.9476 11.3344C28.4648 11.3344 28.9608 11.5451 29.3264 11.9202C29.6921 12.2952 29.8976 12.8039 29.8976 13.3343C29.8976 12.8039 30.103 12.2952 30.4687 11.9202C30.8344 11.5451 31.3303 11.3344 31.8475 11.3344C32.3646 11.3344 32.8606 11.5451 33.2263 11.9202C33.592 12.2952 33.7974 12.8039 33.7974 13.3343C33.7971 13.2943 33.798 13.2542 33.8 13.2142C33.8263 12.784 33.9875 12.374 34.2595 12.0453C34.5315 11.7166 34.8998 11.4869 35.3095 11.3904C35.7192 11.2939 36.1483 11.3356 36.5329 11.5095C36.9175 11.6835 37.237 11.9804 37.4438 12.3557L33.8468 2.66797H6.45038ZM2.64543 12.913L2.59863 13.0383V13.309C2.60133 13.1757 2.617 13.043 2.64543 12.913ZM37.6531 12.913C37.6806 13.0431 37.6954 13.1758 37.6973 13.309V13.037L37.6518 12.9117L37.6531 12.913ZM37.6973 13.3343C37.6973 13.3797 37.6505 13.4062 37.6492 13.4515H37.696L37.6973 13.3343Z" fill="#FF9E9E"/>
<path fill-rule="evenodd" clip-rule="evenodd" d="M27.2977 26.6668V25.3335H31.1975V34.6665H27.2977V31.9999H29.8976V26.6668H27.2977Z" fill="#8AB9FF"/>
<path d="M27.9477 16.7646C27.3596 17.1311 26.6859 17.3278 25.9978 17.334C25.5376 17.334 25.1086 17.2165 24.6978 17.0552V21.3351H33.7975V17.3353C33.1091 17.3283 32.4354 17.1306 31.8475 16.7632C31.2596 17.1301 30.5858 17.3274 29.8976 17.334C29.2094 17.3274 28.5357 17.1301 27.9477 16.7632V16.7646Z" fill="#8AB9FF"/>
</svg>
