<svg width="32" height="36" viewBox="0 0 32 36" fill="none" xmlns="http://www.w3.org/2000/svg">
<path d="M30.791 32.2724V34.3421C30.791 34.4525 30.6861 34.5891 30.5033 34.5891H0.787695C0.60493 34.5891 0.5 34.4525 0.5 34.3421V32.2724C0.5 27.1111 4.92641 22.8762 10.4352 22.8762H20.8556C26.3652 22.8829 30.791 27.1117 30.791 32.2724Z" fill="#8AB9FF" stroke="black"/>
<path d="M12.2359 24.9808V18.4626H19.055V24.9808H12.2359Z" fill="#FFDDCE" stroke="black"/>
<path d="M22.8543 13.282H23.2912C23.89 13.282 24.3232 12.8263 24.3232 12.3291C24.3232 11.8286 23.8929 11.3811 23.2944 11.3762L22.7984 11.3722V10.8762V9.06009C22.7984 5.21305 19.3739 2.07063 15.1843 2.32205L22.8543 13.282ZM22.8543 13.282L22.7957 13.715M22.8543 13.282L22.7957 13.715M22.7957 13.715L22.6584 14.7293L22.6584 14.7294M22.7957 13.715L22.6584 14.7294M22.6584 14.7294C22.2104 18.0456 19.2244 20.5603 15.6455 20.5603C12.0666 20.5603 9.08058 18.0456 8.63261 14.7294L8.63259 14.7293M22.6584 14.7294L8.63259 14.7293M8.63259 14.7293L8.49529 13.715L8.43668 13.282M8.63259 14.7293L8.43668 13.282M8.43668 13.282H7.9998M8.43668 13.282H7.9998M7.9998 13.282C7.40513 13.282 6.96777 12.8302 6.96777 12.3291C6.96777 11.8266 7.39947 11.3762 7.9998 11.3762H8.4998M7.9998 13.282L8.4998 11.3762M8.4998 11.3762V10.8762M8.4998 11.3762V10.8762M8.4998 10.8762V9.30681M8.4998 10.8762V9.30681M8.4998 9.30681C8.4998 5.70666 11.3717 2.55297 15.1841 2.32206L8.4998 9.30681Z" fill="#FFDDCE" stroke="black"/>
<path d="M19.8514 6.68201L19.5749 6.26544C18.4419 7.01759 17.0648 7.36753 15.6846 7.25951L15.6456 7.25646L15.6067 7.25949C14.2188 7.36759 12.8418 7.01743 11.709 6.26544L11.7082 6.26489C11.3153 6.00525 10.8062 5.98614 10.3911 6.20104C9.12938 6.81417 8.30811 8.0442 8.26609 9.41488L8.26586 9.42254V9.4302V10.1567C8.26586 10.2572 8.1713 10.3831 7.99984 10.3831C7.82745 10.3831 7.73383 10.2563 7.73383 10.1567V6.64774C7.73383 3.27514 10.621 0.5 14.2436 0.5V0L14.2436 0.5H14.2437H14.2439H14.2441H14.2444H14.2447H14.2451H14.2456H14.2462H14.2468H14.2474H14.2481H14.2489H14.2498H14.2507H14.2516H14.2527H14.2537H14.2549H14.2561H14.2574H14.2587H14.2601H14.2615H14.263H14.2645H14.2662H14.2678H14.2696H14.2713H14.2732H14.2751H14.277H14.279H14.2811H14.2832H14.2854H14.2876H14.2899H14.2923H14.2947H14.2971H14.2996H14.3022H14.3048H14.3074H14.3101H14.3129H14.3157H14.3186H14.3215H14.3245H14.3275H14.3306H14.3337H14.3369H14.3401H14.3434H14.3467H14.3501H14.3535H14.357H14.3605H14.3641H14.3677H14.3714H14.3751H14.3788H14.3827H14.3865H14.3904H14.3944H14.3984H14.4024H14.4065H14.4106H14.4148H14.419H14.4233H14.4276H14.4319H14.4363H14.4408H14.4453H14.4498H14.4544H14.459H14.4636H14.4683H14.4731H14.4779H14.4827H14.4876H14.4925H14.4974H14.5024H14.5074H14.5125H14.5176H14.5227H14.5279H14.5332H14.5384H14.5437H14.5491H14.5544H14.5599H14.5653H14.5708H14.5763H14.5819H14.5875H14.5931H14.5988H14.6045H14.6102H14.616H14.6218H14.6277H14.6336H14.6395H14.6454H14.6514H14.6574H14.6635H14.6696H14.6757H14.6818H14.688H14.6942H14.7004H14.7067H14.713H14.7194H14.7257H14.7321H14.7386H14.745H14.7515H14.758H14.7646H14.7711H14.7777H14.7844H14.791H14.7977H14.8044H14.8112H14.8179H14.8247H14.8316H14.8384H14.8453H14.8522H14.8591H14.8661H14.8731H14.8801H14.8871H14.8941H14.9012H14.9083H14.9154H14.9226H14.9297H14.9369H14.9442H14.9514H14.9586H14.9659H14.9732H14.9806H14.9879H14.9953H15.0027H15.0101H15.0175H15.0249H15.0324H15.0399H15.0474H15.0549H15.0625H15.07H15.0776H15.0852H15.0928H15.1004H15.1081H15.1158H15.1234H15.1311H15.1389H15.1466H15.1543H15.1621H15.1699H15.1777H15.1855H15.1933H15.2011H15.209H15.2168H15.2247H15.2326H15.2405H15.2484H15.2564H15.2643H15.2722H15.2802H15.2882H15.2962H15.3042H15.3122H15.3202H15.3282H15.3362H15.3443H15.3523H15.3604H15.3685H15.3766H15.3847H15.3928H15.4009H15.409H15.4171H15.4252H15.4334H15.4415H15.4496H15.4578H15.466H15.4741H15.4823H15.4905H15.4987H15.5068H15.515H15.5232H15.5314H15.5396H15.5478H15.556H15.5642H15.5725H15.5807H15.5889H15.5971H15.6053H15.6136H15.6218H15.63H15.6382H15.6464H15.6547H15.6629H15.6711H15.6793H15.6876H15.6958H15.704H15.7122H15.7204H15.7287H15.7369H15.7451H15.7533H15.7615H15.7697H15.7779H15.7861H15.7943H15.8025H15.8106H15.8188H15.827H15.8351H15.8433H15.8514H15.8596H15.8677H15.8759H15.884H15.8921H15.9002H15.9083H15.9164H15.9245H15.9326H15.9407H15.9487H15.9568H15.9648H15.9728H15.9809H15.9889H15.9969H16.0049H16.0129H16.0208H16.0288H16.0367H16.0447H16.0526H16.0605H16.0684H16.0763H16.0842H16.092H16.0999H16.1077H16.1155H16.1233H16.1311H16.1389H16.1466H16.1544H16.1621H16.1698H16.1775H16.1852H16.1928H16.2005H16.2081H16.2157H16.2233H16.2309H16.2384H16.246H16.2535H16.261H16.2685H16.2759H16.2834H16.2908H16.2982H16.3056H16.3129H16.3203H16.3276H16.3349H16.3421H16.3494H16.3566H16.3638H16.371H16.3782H16.3853H16.3924H16.3995H16.4066H16.4136H16.4207H16.4276H16.4346H16.4416H16.4485H16.4554H16.4622H16.4691H16.4759H16.4827H16.4894H16.4962H16.5029H16.5096H16.5162H16.5228H16.5294H16.536H16.5425H16.549H16.5555H16.562H16.5684H16.5748H16.5811H16.5874H16.5937H16.6H16.6062H16.6124H16.6186H16.6247H16.6308H16.6369H16.643H16.649H16.6549H16.6609H16.6668H16.6726H16.6785H16.6843H16.69H16.6958H16.7015H16.7071H16.7128H16.7183H16.7239H16.7294H16.7349H16.7403H16.7457H16.7511H16.7564H16.7617H16.767H16.7722H16.7773H16.7825H16.7876H16.7926H16.7976H16.8026H16.8075H16.8124H16.8173H16.8221H16.8269H16.8316H16.8363H16.8409H16.8455H16.8501H16.8546H16.8591H16.8635H16.8679H16.8722H16.8765H16.8808H16.885H16.8891H16.8932H16.8973H16.9013H16.9053H16.9092H16.9131H16.917H16.9208H16.9245H16.9282H16.9319H16.9355H16.939H16.9425H16.946H16.9494H16.9527H16.9561H16.9593H16.9625H16.9657H16.9688H16.9718H16.9749H16.9778H16.9807H16.9836H16.9864H16.9891H16.9918H16.9945H16.997H16.9996H17.0021H17.0045H17.0069H17.0092H17.0115H17.0137H17.0158H17.0179H17.02H17.022H17.0239H17.0258H17.0276H17.0294H17.0311H17.0327H17.0343H17.0358H17.0373H17.0387H17.0401H17.0414H17.0427H17.0438H17.045H17.046H17.047H17.048H17.0489H17.0497H17.0504H17.0511H17.0518H17.0524H17.0529H17.0533H17.0537H17.054H17.0543H17.0545H17.0546H17.0547C20.6773 0.5 23.5645 3.27514 23.5645 6.64774V10.1567C23.5645 10.2572 23.4699 10.3831 23.2985 10.3831C23.1261 10.3831 23.0325 10.2563 23.0325 10.1567V9.4302V9.42254L23.0322 9.41488C22.9902 8.04374 22.1617 6.81599 20.9042 6.20307C20.4828 5.97627 19.9706 6.00051 19.5733 6.26651L19.8514 6.68201ZM19.8514 6.68201C20.0971 6.51753 20.4151 6.50382 20.6752 6.64774L11.4325 6.68201M19.8514 6.68201C18.6229 7.49756 17.1342 7.87449 15.6455 7.75798C14.1496 7.87449 12.661 7.49756 11.4325 6.68201M11.4325 6.68201C11.194 6.52438 10.876 6.51068 10.6159 6.64774C9.51019 7.1823 8.80199 8.25142 8.76586 9.4302L11.4325 6.68201Z" fill="#4C4E4F" stroke="black"/>
<path d="M17.6635 32.6241L16.1707 34.5891H15.1203L13.6275 32.6241L15.1379 28.3931H16.153L17.6635 32.6241Z" fill="#FF9E9E" stroke="black"/>
<path d="M16.8654 25.9262C16.8654 26.4571 16.6632 26.9809 16.2947 27.3931H14.9964C14.6278 26.9809 14.4256 26.4571 14.4256 25.9262V25.5421H16.8654V25.9262Z" fill="#E2887D" stroke="black"/>
<path d="M21.4745 22.5426L21.4744 22.5427L19.0756 25.7495C19.0756 25.7496 19.0755 25.7497 19.0754 25.7498C18.9566 25.9079 18.7196 25.9719 18.5154 25.8736C18.5153 25.8736 18.5151 25.8735 18.5149 25.8734L16.5136 24.9011L18.8513 22.6842C19.2292 22.3257 19.7589 22.1398 20.3053 22.1888L20.3061 22.1889L21.3176 22.278C21.3177 22.278 21.3177 22.278 21.3177 22.278C21.4093 22.2861 21.4655 22.3357 21.491 22.3882C21.5151 22.4379 21.5138 22.4901 21.4745 22.5426Z" fill="#FF9E9E" stroke="black"/>
<path d="M9.82382 22.5427L9.82384 22.5427L9.8205 22.5383C9.77936 22.4846 9.77898 22.4338 9.80171 22.3866C9.82617 22.3357 9.88148 22.2861 9.97338 22.278L10.9849 22.1889L10.9858 22.1888C11.5321 22.1398 12.0618 22.3257 12.4397 22.6842L14.778 24.9017L12.7833 25.8734C12.7831 25.8735 12.7829 25.8736 12.7827 25.8737C12.5785 25.9718 12.3416 25.9079 12.2228 25.7498C12.2227 25.7497 12.2227 25.7496 12.2226 25.7495L9.82382 22.5427Z" fill="#FF9E9E" stroke="black"/>
<path d="M11.6429 11.9221C11.8134 11.9221 11.9769 11.8579 12.0974 11.7436C12.218 11.6292 12.2857 11.4742 12.2857 11.3125V10.0932C12.2857 9.93149 12.218 9.77642 12.0974 9.66208C11.9769 9.54775 11.8134 9.48352 11.6429 9.48352C11.4724 9.48352 11.3088 9.54775 11.1883 9.66208C11.0677 9.77642 11 9.93149 11 10.0932V11.3125C11 11.4742 11.0677 11.6292 11.1883 11.7436C11.3088 11.8579 11.4724 11.9221 11.6429 11.9221ZM19.3571 11.9221C19.5276 11.9221 19.6912 11.8579 19.8117 11.7436C19.9323 11.6292 20 11.4742 20 11.3125V10.0932C20 9.93149 19.9323 9.77642 19.8117 9.66208C19.6912 9.54775 19.5276 9.48352 19.3571 9.48352C19.1866 9.48352 19.0231 9.54775 18.9026 9.66208C18.782 9.77642 18.7143 9.93149 18.7143 10.0932V11.3125C18.7143 11.4742 18.782 11.6292 18.9026 11.7436C19.0231 11.8579 19.1866 11.9221 19.3571 11.9221ZM20 14.9704H18.7143C18.7143 15.9617 17.2421 16.7994 15.5 16.7994C13.7579 16.7994 12.2857 15.9617 12.2857 14.9704H11C11 16.6775 12.9768 18.0187 15.5 18.0187C18.0232 18.0187 20 16.6775 20 14.9704Z" fill="#5A5757"/>
</svg>
