<svg width="52" height="52" viewBox="0 0 52 52" fill="none" xmlns="http://www.w3.org/2000/svg">
<path d="M34.9292 43.4497C35.8702 43.4497 36.6331 42.6869 36.6331 41.7459C36.6331 40.8048 35.8702 40.042 34.9292 40.042C33.9882 40.042 33.2253 40.8048 33.2253 41.7459C33.2253 42.6869 33.9882 43.4497 34.9292 43.4497Z" fill="#F4B2B0"/>
<path d="M24.5597 22.8569C24.1592 22.4574 23.9125 21.9293 23.8633 21.3657C23.814 20.8021 23.9653 20.2393 24.2905 19.7763C23.9661 19.6327 23.611 19.5724 23.2574 19.6009C22.9038 19.6293 22.563 19.7457 22.2657 19.9393C21.9685 20.1329 21.7244 20.3977 21.5554 20.7097C21.3865 21.0216 21.2982 21.3708 21.2985 21.7255V19.1697C21.2985 18.6049 21.0741 18.0631 20.6747 17.6637C20.2753 17.2643 19.7335 17.0399 19.1687 17.0399C18.6038 17.0399 18.0621 17.2643 17.6627 17.6637C17.2632 18.0631 17.0388 18.6049 17.0388 19.1697V16.614C17.0388 16.0491 16.8145 15.5074 16.415 15.1079C16.0156 14.7085 15.4739 14.4841 14.909 14.4841C14.3442 14.4841 13.8024 14.7085 13.403 15.1079C13.0036 15.5074 12.7792 16.0491 12.7792 16.614V18.3178C12.7792 17.7529 12.5548 17.2112 12.1554 16.8118C11.756 16.4124 11.2142 16.188 10.6494 16.188C10.0845 16.188 9.54279 16.4124 9.14337 16.8118C8.74395 17.2112 8.51956 17.7529 8.51956 18.3178V34.0785H7.66763L3.90295 31.0669C3.58261 30.8105 3.18449 30.6708 2.77415 30.6708H2.65913C2.3017 30.6707 1.95227 30.7766 1.65505 30.9752C1.35783 31.1737 1.12617 31.456 0.989374 31.7862C0.852579 32.1164 0.816795 32.4798 0.886548 32.8304C0.956302 33.1809 1.12846 33.5029 1.38124 33.7556L7.58925 39.9636C8.18483 40.5593 8.99262 40.8939 9.83493 40.8939H10.2234V50.2652H22.1504V40.3121C23.1696 39.8296 24.0308 39.0677 24.6341 38.115C25.2373 37.1623 25.5577 36.058 25.5581 34.9304V23.8554L24.5597 22.8569Z" fill="#F4B2B0"/>
<path d="M48.5602 5.11276C47.9459 5.11588 47.3442 5.28642 46.8197 5.60603C46.7651 5.03727 46.5669 4.49171 46.2436 4.0206C45.9203 3.54948 45.4826 3.16825 44.9716 2.91273C44.4605 2.65721 43.8929 2.53577 43.3221 2.55982C42.7512 2.58388 42.1958 2.75263 41.7081 3.05024C41.6312 2.2811 41.2935 1.56139 40.7512 1.01062C40.2088 0.459855 39.4944 0.111149 38.7265 0.0224039C37.9587 -0.0663416 37.1835 0.110212 36.5299 0.52275C35.8762 0.935289 35.3832 1.559 35.1329 2.29032C34.6204 1.94415 34.0234 1.74397 33.4059 1.71122C32.7883 1.67848 32.1735 1.81442 31.6272 2.10446C31.081 2.3945 30.6241 2.82772 30.3053 3.35767C29.9865 3.88762 29.818 4.49432 29.8177 5.11276V20.0956L28.5697 18.8476C27.9678 18.2433 27.1524 17.9 26.2996 17.8919C25.4468 17.8838 24.6251 18.2114 24.0118 18.8041C23.3773 18.6714 22.7166 18.7579 22.1376 19.0495C22.1066 18.2819 21.7806 17.5558 21.2275 17.0227C20.6744 16.4896 19.9368 16.1905 19.1686 16.1878C18.721 16.1904 18.2799 16.295 17.8788 16.4937C17.8542 15.7933 17.5824 15.1242 17.1117 14.605C16.6409 14.0858 16.0016 13.7499 15.307 13.6569C14.6123 13.564 13.9072 13.7199 13.3165 14.0971C12.7258 14.4742 12.2877 15.0483 12.0797 15.7176C11.6431 15.4708 11.1508 15.3395 10.6493 15.3359C9.85851 15.3359 9.10009 15.6501 8.5409 16.2092C7.98172 16.7684 7.66757 17.5269 7.66757 18.3177V32.987L4.43535 30.4014C3.96337 30.025 3.37778 29.8196 2.77409 29.8187H2.65908C2.13317 29.8187 1.61907 29.9746 1.18178 30.2667C0.744493 30.5589 0.403668 30.9742 0.202407 31.46C0.00114665 31.9459 -0.0515082 32.4806 0.0511018 32.9964C0.153712 33.5122 0.406978 33.9859 0.778868 34.3578L6.98602 40.5666C7.62916 41.2048 8.47052 41.6047 9.37143 41.7006V50.265C9.37143 50.491 9.46118 50.7076 9.62095 50.8674C9.78072 51.0272 9.99741 51.1169 10.2234 51.1169H22.1504C22.3763 51.1169 22.593 51.0272 22.7528 50.8674C22.9125 50.7076 23.0023 50.491 23.0023 50.265V40.8239C24.0371 40.2265 24.8966 39.3675 25.4947 38.3331C26.0928 37.2987 26.4085 36.1252 26.41 34.9303V25.9118L29.2836 28.7853C30.1318 29.6361 31.2028 30.2305 32.3735 30.5002V34.9303C31.6957 34.9303 31.0456 35.1996 30.5663 35.6789C30.087 36.1582 29.8177 36.8082 29.8177 37.4861V44.3015C29.8177 44.9793 30.087 45.6294 30.5663 46.1087C31.0456 46.588 31.6957 46.8573 32.3735 46.8573V50.265C32.3735 50.491 32.4633 50.7076 32.623 50.8674C32.7828 51.0272 32.9995 51.1169 33.2254 51.1169H47.7082C47.9342 51.1169 48.1509 51.0272 48.3106 50.8674C48.4704 50.7076 48.5602 50.491 48.5602 50.265V46.8573C49.238 46.8573 49.8881 46.588 50.3674 46.1087C50.8467 45.6294 51.116 44.9793 51.116 44.3015V37.4861C51.116 36.8082 50.8467 36.1582 50.3674 35.6789C49.8881 35.1996 49.238 34.9303 48.5602 34.9303V29.7488C49.595 29.1514 50.4545 28.2924 51.0526 27.258C51.6507 26.2236 51.9664 25.0501 51.9679 23.8552V8.52048C51.9679 7.61669 51.6089 6.74993 50.9698 6.11086C50.3307 5.47179 49.464 5.11276 48.5602 5.11276ZM24.7062 34.9303C24.7048 36.2855 24.1658 37.5849 23.2075 38.5432C22.2492 39.5015 20.9498 40.0405 19.5946 40.0419V41.7457C20.1697 41.7437 20.7423 41.6684 21.2984 41.5217V49.4131H11.0753V41.7457H12.7791V40.0419H9.83488C9.52952 40.0424 9.2271 39.9824 8.94504 39.8654C8.66298 39.7484 8.40688 39.5768 8.1915 39.3603L1.9835 33.1532C1.84982 33.0196 1.75877 32.8494 1.72188 32.664C1.68498 32.4787 1.70389 32.2866 1.77622 32.112C1.84855 31.9375 1.97105 31.7883 2.1282 31.6833C2.28536 31.5784 2.47011 31.5225 2.65908 31.5226H2.77409C2.99091 31.5226 3.20124 31.5966 3.37044 31.7321L7.13511 34.7437C7.28626 34.8646 7.47404 34.9304 7.66757 34.9303H11.9272C12.831 34.9303 13.6978 35.2893 14.3368 35.9284C14.9759 36.5675 15.3349 37.4342 15.3349 38.338H17.0388C17.0374 36.9827 16.4985 35.6834 15.5401 34.7251C14.5818 33.7668 13.2825 33.2278 11.9272 33.2264H9.37143V18.3177C9.37143 17.9787 9.50606 17.6537 9.74571 17.4141C9.98536 17.1744 10.3104 17.0398 10.6493 17.0398C10.9882 17.0398 11.3133 17.1744 11.5529 17.4141C11.7926 17.6537 11.9272 17.9787 11.9272 18.3177V27.2629H13.6311V16.6138C13.6311 16.2749 13.7657 15.9498 14.0054 15.7102C14.245 15.4705 14.57 15.3359 14.909 15.3359C15.2479 15.3359 15.5729 15.4705 15.8126 15.7102C16.0522 15.9498 16.1869 16.2749 16.1869 16.6138V27.2629H17.8907V19.1696C17.8907 18.8307 18.0254 18.5056 18.265 18.266C18.5047 18.0263 18.8297 17.8917 19.1686 17.8917C19.5075 17.8917 19.8326 18.0263 20.0722 18.266C20.3119 18.5056 20.4465 18.8307 20.4465 19.1696V27.2629H22.1504V21.7254C22.1517 21.4504 22.2417 21.1831 22.407 20.9633C22.5723 20.7436 22.804 20.583 23.0679 20.5054C22.9604 21.033 22.9853 21.5791 23.1405 22.0947C23.2958 22.6103 23.5764 23.0793 23.9573 23.4599L24.7062 24.2079V34.9303ZM46.8563 49.4131H34.0774V46.8573H46.8563V49.4131ZM49.4121 37.4861V44.3015C49.4121 44.5275 49.3223 44.7441 49.1626 44.9039C49.0028 45.0637 48.7861 45.1534 48.5602 45.1534H32.3735C32.1476 45.1534 31.9309 45.0637 31.7711 44.9039C31.6113 44.7441 31.5216 44.5275 31.5216 44.3015V37.4861C31.5216 37.2601 31.6113 37.0434 31.7711 36.8837C31.9309 36.7239 32.1476 36.6341 32.3735 36.6341H48.5602C48.7861 36.6341 49.0028 36.7239 49.1626 36.8837C49.3223 37.0434 49.4121 37.2601 49.4121 37.4861ZM50.264 23.8552C50.2627 25.2105 49.7237 26.5098 48.7654 27.4681C47.8071 28.4265 46.5077 28.9654 45.1525 28.9668V30.6706C45.7276 30.6686 46.3002 30.5933 46.8563 30.4466V34.9303H34.0774V30.6706H35.7812V28.9668H33.8346C33.2128 28.9685 32.597 28.8468 32.0226 28.6089C31.4481 28.371 30.9266 28.0215 30.4882 27.5807L25.1619 22.2553C24.9441 22.0374 24.7958 21.7598 24.7357 21.4576C24.6756 21.1554 24.7065 20.8422 24.8244 20.5575C24.9423 20.2729 25.1419 20.0295 25.3981 19.8583C25.6542 19.6871 25.9554 19.5957 26.2635 19.5956C26.6765 19.5966 27.0724 19.7607 27.365 20.0522L30.9193 23.6056C31.079 23.7654 31.2957 23.8552 31.5216 23.8552H34.9293C35.8331 23.8552 36.6998 24.2142 37.3389 24.8533C37.978 25.4924 38.337 26.3591 38.337 27.2629H40.0409C40.0395 25.9077 39.5005 24.6083 38.5422 23.65C37.5839 22.6917 36.2846 22.1527 34.9293 22.1513H31.8743L31.5216 21.7986V5.11276C31.5216 4.66087 31.7011 4.22749 32.0206 3.90795C32.3402 3.58841 32.7736 3.4089 33.2254 3.4089C33.6773 3.4089 34.1107 3.58841 34.4303 3.90795C34.7498 4.22749 34.9293 4.66087 34.9293 5.11276V16.1878H36.6332V3.4089C36.6332 2.95701 36.8127 2.52363 37.1322 2.20409C37.4517 1.88456 37.8851 1.70504 38.337 1.70504C38.7889 1.70504 39.2223 1.88456 39.5418 2.20409C39.8614 2.52363 40.0409 2.95701 40.0409 3.4089V16.1878H41.7447V5.96469C41.7447 5.5128 41.9242 5.07941 42.2438 4.75988C42.5633 4.44034 42.9967 4.26083 43.4486 4.26083C43.9005 4.26083 44.3339 4.44034 44.6534 4.75988C44.9729 5.07941 45.1525 5.5128 45.1525 5.96469V16.1878H46.8563V8.52048C46.8563 8.06859 47.0358 7.6352 47.3554 7.31567C47.6749 6.99613 48.1083 6.81662 48.5602 6.81662C49.0121 6.81662 49.4454 6.99613 49.765 7.31567C50.0845 7.6352 50.264 8.06859 50.264 8.52048V23.8552Z" fill="#8AB9FF"/>
<path d="M34.9293 39.1899C34.4238 39.1899 33.9297 39.3398 33.5094 39.6207C33.0891 39.9015 32.7615 40.3007 32.5681 40.7677C32.3746 41.2347 32.324 41.7486 32.4226 42.2443C32.5213 42.7401 32.7647 43.1955 33.1221 43.5529C33.4795 43.9104 33.9349 44.1538 34.4307 44.2524C34.9265 44.351 35.4404 44.3004 35.9074 44.107C36.3744 43.9135 36.7735 43.5859 37.0544 43.1656C37.3352 42.7454 37.4851 42.2512 37.4851 41.7457C37.4851 41.0679 37.2158 40.4178 36.7365 39.9385C36.2572 39.4592 35.6072 39.1899 34.9293 39.1899ZM34.9293 42.5977C34.7608 42.5977 34.5961 42.5477 34.456 42.4541C34.3159 42.3605 34.2067 42.2274 34.1422 42.0717C34.0778 41.9161 34.0609 41.7448 34.0938 41.5795C34.1266 41.4143 34.2078 41.2625 34.3269 41.1433C34.4461 41.0242 34.5979 40.943 34.7631 40.9102C34.9284 40.8773 35.0997 40.8942 35.2553 40.9587C35.411 41.0231 35.5441 41.1323 35.6377 41.2724C35.7313 41.4125 35.7813 41.5772 35.7813 41.7457C35.7813 41.9717 35.6915 42.1884 35.5317 42.3481C35.372 42.5079 35.1553 42.5977 34.9293 42.5977Z" fill="#8AB9FF"/>
</svg>
